<?xml version="1.0" standalone="no"?>
<!DOCTYPE svg PUBLIC "-//W3C//DTD SVG 1.1//EN" "http://www.w3.org/Graphics/SVG/1.1/DTD/svg11.dtd" >
<svg xmlns="http://www.w3.org/2000/svg">
<metadata></metadata>
<defs>
<font id="ma_sexyregular" horiz-adv-x="562" >
<font-face units-per-em="2048" ascent="1638" descent="-410" />
<missing-glyph horiz-adv-x="600" />
<glyph horiz-adv-x="2048" />
<glyph horiz-adv-x="2048" />
<glyph unicode="&#xd;" horiz-adv-x="0" />
<glyph unicode=" "  horiz-adv-x="600" />
<glyph unicode="&#x09;" horiz-adv-x="600" />
<glyph unicode="&#xa0;" horiz-adv-x="600" />
<glyph unicode="!" horiz-adv-x="395" d="M51 12q12 18 24 42l37 28q25 -6 47 -23q10 -22 10 -47l-19 -47l-38 -29l-56 14zM95 408q73 453 104 1530q35 16 94 -25q21 -11 38 -28l-10 -170l-104 -897l-42 -368l9 -9q-13 -32 -51 -47q-20 3 -38 14z" />
<glyph unicode="&#x22;" horiz-adv-x="700" d="M199 2015q19 19 46 33q26 -12 63 -27l-6 -73v-183q1 -61 -8 -62.5t-37 14.5q-7 22 -8 49q-4 21 -2 49l-35 148zM387 2014q11 18 40 33q48 -7 67 -24l-13 -60l-12 -122l-31 -144q-29 29 -37 54z" />
<glyph unicode="#" horiz-adv-x="875" d="M13 491q13 107 100 196t226 147q18 1 39 11l14 190l-134 -17l-22 -1q-33 51 -14 57l123 21l46 8l4 76l-11 224l-1 39l5 13l36 11l13 -10q18 -2 34 -15q2 -16 2 -36l-5 -13l-7 -200v-80l225 29l4 40l5 265l-2 35l10 8q10 18 24 34q21 -7 43 -21l-7 -295l-6 -59 q58 -3 109 2q0 -42 -8 -62l-103 -10q-20 -163 -22 -187l74 -2l61 -8l4 -13l-7 -26l-60 4l-69 -6l-6 -417l-7 -35q-14 -13 -33 -25q-19 7 -43 58l-1 44l20 370l-217 -29q-4 -94 -17.5 -170.5t-56 -172t-145 -159.5t-166.5 8t-51 179zM117 481.5q-14 -97.5 26 -145t118 27 t107 253.5l12 181q-53 -24 -104 -51t-98 -97.5t-61 -168zM456 868l109 9l96 10l22 188l-217 -23z" />
<glyph unicode="$" horiz-adv-x="823" d="M0 748q13 14 40 19q19 -11 36 -29q8 -19 24 -35q8 -93 16 -115.5t36 -62t44 -54t38 -26t46 -19.5t113 -13l-1 584l-2 55q-102 76 -162 113t-76 77t-19 94.5t24 105.5t95 109t92 67.5t74 28.5v115l4 10q21 11 48 19q13 -16 16 -140q51 -2 90 -17q14 161 28 176 q24 -3 44 -22l-15 -181q74 -37 109 -146l8 -35l-12 -7l-42 -9l-28 35l4 37l-42 49l-2 -38l-44 -445q148 -153 176.5 -196t32.5 -81.5t2 -72t-32.5 -91.5t-78.5 -102.5t-109 -76.5l-3 -180q-16 -15 -40 -25q-24 1 -32 19l8 153l-50 -20l-6 -157l-44 -10l-16 19l-6 142 q-66 3 -106 13t-62 21.5t-40 24t-38 24t-34 27.5t-28 33.5t-24 36.5t-24 65.5t-18 91.5zM311.5 1407q8.5 -99 32.5 -141t56 -64l22 393q-119 -89 -110.5 -188zM456 1141l68 -52l44 491l-84 27zM457 425l14 10l36 16l1 101l4 416l-24 23l-28 19zM567 480q121 133 116 230 t-61 176l-48 49l-6 -95z" />
<glyph unicode="%" horiz-adv-x="774" d="M46.5 1488.5q-2.5 50.5 18.5 92.5t46 68.5t57 45.5t53 20.5t29.5 0.5t34 -6.5t36.5 -16.5t17.5 -27.5t24.5 -18.5t47 14.5t47 21.5q57 140 96.5 178t79.5 41.5t64.5 -23t18 -71.5t-113.5 -129l-69 -45q-87 -605 -108 -865.5t-49.5 -344t-56.5 -140.5t-45 -79t-50 -44 t-69 -36l-31 -3l-7 3q-12 7 -17.5 15t-3.5 25t7 22.5t24 -5.5t65.5 9.5t75.5 74t49 124t38.5 219t37.5 441.5t49 531l3 24q-41 -20 -58 -25.5t-25.5 -8.5t-15 -9.5t-23 -56.5t-54 -96t-106.5 -43.5t-91.5 37.5t-25 85.5zM117.5 1555q-23.5 -84 16 -105.5t73 10t47.5 70.5 t15 58.5t-1.5 42.5t-22.5 43t-62 -7.5t-65.5 -111.5zM459 541.5q-2 7.5 0 26.5t15 41.5t20.5 31.5t17 17t28.5 19.5t31.5 14t26.5 7.5t42.5 1t45.5 -21l25.5 -25.5t15 -20.5t10.5 -27t2 -21t-2 -13.5t-9.5 -34t-24.5 -43.5t-26 -24t-24.5 -11.5t-26 -7t-26.5 -3.5t-42.5 6.5 t-49.5 20.5t-34 36t-15 30.5zM526.5 580.5q12.5 -25.5 44 -43.5t64 -11.5t51 36.5t11 57t-36.5 39q-29 13 -60.5 5t-58.5 -32.5t-14.5 -50zM566 1784.5q-57 -88.5 44 -34t57 88.5t-101 -54.5z" />
<glyph unicode="&#x26;" horiz-adv-x="828" d="M34 426.5q-8 52.5 10.5 122t92.5 156t222 220.5q-40 62 -71 148.5t-16 178.5t58 151t90 84.5t83 33t66 7.5t54 -7.5t57 -31t54.5 -59t33 -81.5t-16 -126.5t-157.5 -180.5t-146 -119q12 -14 65.5 -54t90.5 -71q-29 65 -34.5 75t-10 23.5t6.5 19t37 9.5q16 -2 25 -15.5 t27 -42.5t34 -104q71 -29 118 -83t63.5 -99.5t17 -107t-21 -122t-63 -114.5t-87 -90t-93.5 -38.5t-80 31t-24 108t34 112.5t42 55t36 29t44 9.5t44 -14.5t23 -24t4 -26.5t-15 -21.5t-31 -13t-19.5 2.5t-14 12t-27.5 -11t-37 -39.5t-29 -49t-12 -52.5t10 -48t28 -21.5t40 7.5 t65 44.5t58 71.5t29.5 108t4.5 129t-30.5 101t-71.5 75.5q3 -32 -13.5 -80.5t-60.5 -102t-86.5 -92.5t-122.5 -80t-126 -43.5t-90 4.5t-98.5 45.5t-62.5 91zM143.5 495.5q3.5 -44.5 31 -77.5t68 -40.5t81 -4.5t89 24.5t103 65t81.5 116t23.5 106t-14.5 44t-58.5 47t-82 57 t-70.5 49.5q-110 -96 -156.5 -142.5t-72.5 -123t-22.5 -121zM363.5 1179.5q-5.5 -61.5 8.5 -115.5t40 -93q139 101 190 164t76 115t29 99.5t-28 85.5t-81 33t-92.5 -27.5t-67 -54t-46.5 -88.5t-28.5 -118.5z" />
<glyph unicode="'" horiz-adv-x="505" d="M209 1582q-5 15 15.5 18t44.5 24.5t34.5 49t15.5 70.5l-20 2q-67 13 -80.5 41t-7 55.5t17 37t23.5 18.5t55 10t61 -23t24.5 -56.5t-14.5 -79t-42 -89t-59 -72t-50 -25.5t-18 19z" />
<glyph unicode="(" horiz-adv-x="807" d="M38 599q-3 235 44 477.5t137 427t175 302t136 170.5t63 67q12 15 21 13t18 -10t12.5 -19.5t-33.5 -50t-184 -251.5t-239.5 -637.5t-45.5 -708t125.5 -522t135.5 -325t68 -109t2.5 -29.5t-14.5 -12t-114 164t-164 299.5t-98 324.5t-45 429z" />
<glyph unicode=")" horiz-adv-x="667" d="M4 2010.5q4 11.5 13 19t18 10t21 -12.5t62.5 -68t136 -170t175.5 -301.5t137 -427t44 -477.5t-45.5 -429t-98 -325t-163.5 -299.5t-114 -163.5t-14.5 11.5t2.5 29t68 109t135.5 325.5t125.5 522.5t-46 707.5t-239.5 637.5t-184 252t-33.5 50z" />
<glyph unicode="*" horiz-adv-x="663" d="M7 1676.5q7 11.5 20.5 14.5t14.5 -14.5t6.5 -34t14.5 -26t42 -9.5t72.5 5.5t63.5 39.5q-96 56 -113.5 73.5t-26 25t-17 29.5t-8.5 35t7.5 27t26.5 31.5t33 22t28.5 9t19 -8.5t-7 -17.5t-32.5 -9.5t-29.5 -12.5t-11.5 -20.5t19.5 -45t55 -49t86.5 -42l3 11q5 105 11 132.5 t21 62t36.5 63t42 40t45 16t53.5 -1.5t49.5 -15t33.5 -29t14.5 -40.5t-2.5 -37t-11.5 -29t-20.5 -31.5t-30.5 -38t-39.5 -38.5t-35.5 -30.5t22 -5t51.5 8.5t53.5 -4.5t55.5 -23t15 -47t-35 -55.5t-52.5 -36t-55.5 -10.5t-24.5 -13.5t13 -28.5t-3 -43.5t-16 -49.5 t-26.5 -40.5t-35 -35t-43.5 -26t-63.5 -19t-73 5.5t-42.5 72t14.5 109t29 60t18 37q-24 -3 -48.5 -6t-55 -6t-57.5 1t-41 9t-19.5 16t-13 36.5t-0.5 37zM240 1458q-13 -44 11.5 -77.5t69.5 -23.5t70 45.5t13 103.5t-78 101q-73 -105 -86 -149zM326 1700q79 78 114 130.5 t46.5 92t-10 58t-43 10t-41 -25t-30 -44t-19 -68t-17.5 -153.5zM373 1644q55 -20 73.5 -22.5t42 0t48.5 11t31.5 25t-10 26.5t-168.5 -28z" />
<glyph unicode="+" horiz-adv-x="560" d="M58 883q6 20 18 39l11 17l41 -3l11 -6q32 -3 72 -1l152 -8q30 1 68 -4q31 -2 64 11q31 -9 26 -43q-10 -29 -39 -50l-18 -12l-31 17q-33 3 -73 1l-40 11l-27 -3l-61 3l-66 -7q-28 2 -62 -5l-33 -9l-10 28zM228 677l4 41l5 11q3 32 1 72l8 152q-1 30 4 68q2 31 -11 64 q9 31 43 27q29 -11 50 -40l12 -18l-17 -31q-3 -33 -1 -73l-11 -40l3 -27l-3 -61l7 -66q-2 -28 5 -62l9 -33l-28 -10l-24 -3q-20 7 -39 18z" />
<glyph unicode="," horiz-adv-x="233" d="M77.5 95q1.5 22 10 42t30.5 31t32.5 8.5t22 -8.5t20.5 -14t16.5 -22.5t13 -38t3.5 -47.5t-10 -50t-28.5 -59t-37.5 -44t-29.5 -13t-18 9t-6.5 21t21 8t31 18t18 62q-47 1 -66.5 23.5t-21.5 37t-0.5 36.5z" />
<glyph unicode="-" d="M19 854q4 22 12 44l8 20l44 4l12 -4q35 3 76 12l160 20q31 7 72 8q33 5 64 24q36 -4 36 -40q-5 -32 -32 -60l-16 -16l-36 12q-34 -2 -76 -12l-44 4l-28 -8l-64 -8l-68 -20q-28 -2 -64 -16l-32 -16l-16 28z" />
<glyph unicode="." horiz-adv-x="334" d="M114.5 50q4.5 12 11 24t18 25.5t36.5 27.5t38.5 8.5t25 -17.5t14.5 -26.5t3.5 -34t-1 -32t-13.5 -22t-23 -15t-24.5 -7t-30 0.5t-31.5 12.5t-21.5 27t-2 28.5z" />
<glyph unicode="/" horiz-adv-x="490" d="M0 -258q299 1005 483 2118q18 93 71 133q24 -20 43 -50l-46 -257l-227 -1040l-212 -856l10 -16q-24 -46 -76 -61q-25 9 -46 29z" />
<glyph unicode="0" horiz-adv-x="1337" d="M8 765q8 166 56 316t175 318t199.5 228t152.5 110t152.5 80t86.5 38t36 2t54 -4t94 8t78 0t72 -52t100 -154t52 -150t28 -301.5t-62 -485t-216 -380.5t-320 -215t-384 42t-280 268t-74 332zM173 602q37 -273 224 -386.5t379 -33.5t278 254.5t128 332.5t36.5 477.5 t-59.5 411.5t-86.5 112.5t-54.5 22.5t-40 -6t-32 -20t-44 -32t-56 -44t-35.5 -38t-18 -32t-13 -26t-8 -18t-29.5 -60t-40.5 -42t-24 26t-3 33.5t18 34t19.5 56.5t52 94q-28 24 -42 16t-33 -16t-34.5 -20t-57 -41.5t-113.5 -107.5t-146 -188.5t-138 -298.5t-27 -461z" />
<glyph unicode="1" horiz-adv-x="308" d="M104 129l4 691l3 562l5 387l-8 32l32 44l76 -37q-4 -11 6 -32l4 -52l-16 -256l2 -367l-4 -409l-12 -511l-8 -52q-12 -13 -32 -24q-34 0 -52 24z" />
<glyph unicode="2" horiz-adv-x="1404" d="M53.5 285.5q-37.5 118.5 53 187t238 88t216 -0.5t102.5 -39q168 319 228 533t23.5 405t-91 273.5t-120.5 111.5t-148.5 -12.5t-128 -119t-59.5 -140.5t-24 -58t-18 14t-5.5 40t38 110t70 120t88 64.5t109 28t116 -4.5t125 -41.5t116.5 -130.5t63.5 -243t-4 -276.5 t-125.5 -350t-125.5 -240t-59.5 -110.5q44 -2 205 -103.5t237 -119t144.5 -21t118 35.5t67.5 43.5t25.5 -7t-2.5 -33t-30.5 -41t-82.5 -45t-166 -7t-207 64t-162 80.5t-173 87q-119 -160 -208 -220.5t-178.5 -87.5t-158.5 10t-106.5 155.5zM151 364q-19 -56 33.5 -131.5 t123.5 -67t159.5 88t141.5 200.5q-32 24 -154 22.5t-203.5 -29t-100.5 -83.5z" />
<glyph unicode="3" horiz-adv-x="1293" d="M57 394l19 19q60 -117 172.5 -210t200 -108.5t160.5 -5.5t149 40t150.5 112t114 234t13 262.5t-50 154.5t-93.5 116q-22 15 -53 23q-135 -162 -241.5 -174.5t-151.5 16t-13.5 87.5t120.5 122t258 52q27 13 112 179t74 260.5t-41.5 163.5t-89.5 98.5t-120 41t-136.5 -1 t-154.5 -52t-186 -170.5l-78 -124q-20 19 -33 47q152 249 302.5 321t274.5 68t218 -48t157.5 -219t-199.5 -569q125 -79 219.5 -197.5t109 -228t-19 -212t-114 -205t-133.5 -137t-110 -67t-133.5 -46.5t-114.5 -16.5t-127 11.5t-143 39.5t-82.5 44t-52.5 39.5t-43 44.5 t-91 134.5zM499 954q-8 -27 24.5 -50.5t84 0.5t84.5 66.5t90 97.5q-32 0 -56.5 -2t-57 -9t-56.5 -18t-64.5 -34.5t-48.5 -50.5z" />
<glyph unicode="4" horiz-adv-x="1250" d="M45 1007q20 344 38 458t61.5 279.5t68.5 161t51 -5.5t28 -15t-64.5 -260t-50.5 -490q19 6 101 22t192.5 38t205.5 47q27 122 50.5 187.5t49.5 154t82 200.5t113 131.5t113 33t122 -29t21.5 -194.5t-120.5 -262t-132.5 -145.5t-168.5 -98.5q-39 -828 -62 -1048.5t-42 -284 t-34 -83t-29 -0.5t-17.5 54t1.5 128.5t11.5 466t42.5 734.5q-95 -16 -177 -34t-161 -39t-152 -74l-31 -44l-60 -20q-36 5 -51 32zM814 1279q46 32 87.5 51.5t85.5 67.5t85 110t85 206t21 162t-58.5 6t-60.5 -22t-60 -56t-69 -133t-116 -392z" />
<glyph unicode="5" horiz-adv-x="1135" d="M0 95q14 19 36 29q74 -137 194 -196t225 -48t188.5 70.5t193.5 269.5t104.5 525.5t-144 409t-313.5 31.5t-200.5 -94.5t-33 -54.5t-27.5 -53l-49 -25q-9 5 -20 15l8 69l17 129q10 33 16 78l24 157l4 83q3 38 12 84l16 156l-4 20l8 49h12l33 5l48 -20q29 -12 64 -19h60 l72 5l192 24l160 15q27 11 56 29q28 -8 60 -29l12 -10l-8 -7q-13 -24 -40 -34q-26 7 -56 9l-74 -7q-254 -47 -356 -61q-99 -8 -162 -16l-11 -61l-9 -239q-1 -37 -8 -88l-12 -128l28 20q258 95 375.5 77.5t198 -104t127.5 -216.5t51 -242.5t-14.5 -240.5t-86.5 -258 t-241 -256t-348 -102.5t-261.5 97t-116.5 153.5z" />
<glyph unicode="6" horiz-adv-x="1178" d="M21 529q-14 176 57.5 407t232 454.5t351 361t279.5 172t93.5 15.5t-135.5 -88t-255.5 -180.5t-230.5 -328t-147.5 -293.5t-58 -196.5t-28 -192t4.5 -137.5t26 -117q8 -23 23 -47q191 318 311.5 435t252.5 133.5t223 -40t107.5 -180t-22.5 -261t-186 -281t-322 -143.5 t-279.5 47.5t-193.5 165.5t-103 294zM284 271q82 -108 154 -152t196.5 -31.5t220.5 105t133 204t20 263.5t-142 186.5t-237.5 -53.5t-162 -179.5t-172.5 -305.5z" />
<glyph unicode="7" horiz-adv-x="1294" d="M8 1642.5q8 16.5 31.5 19.5t79.5 9t102.5 7t189.5 -6t396 9q82 105 155 187.5t132.5 81.5t102 -39.5t47.5 -79t-2.5 -67t-34 -58t-103 -59.5t-195.5 -30l-24 -74q-73 -272 -160.5 -1056.5t-92.5 -818.5t-22 -58t-28.5 -23.5t-42.5 19.5t-31.5 33.5t4.5 29t109.5 862 t158.5 1070.5q-347 21 -503.5 8.5t-167.5 -31.5t-16 -31.5t-12.5 -17.5t-24.5 0t-23 14.5t-9.5 21.5t-13.5 36.5t-2 41zM916 1677q82 -7 157 9.5t104 60.5t6.5 81t-70.5 33t-76 -34.5t-121 -149.5z" />
<glyph unicode="8" horiz-adv-x="997" d="M11.5 163q-11.5 99 26 226t259.5 456q-166 295 -180 343t-12 126t16 126t52 116.5t104 144t153 114.5t192 24t197 -111q6 -18 43 -47q17 56 15.5 90t-16 91.5t-46.5 78t-64 26t-66 7.5t-38 18t-2 16.5t4 4t20 15.5t27 8t20 -4t33 -8t44 -18t42 -20t40 -33t46 -103 t19.5 -145.5t-29.5 -110.5t-75.5 -119.5t-103.5 -138t-115 -156.5t-209 -307q34 -53 91 -164t108.5 -225.5t51 -272t-163.5 -251t-270.5 -58.5t-154.5 98.5t-58.5 162.5zM123 234q-10 -106 8 -166t46 -94t85.5 -40t126 20t114.5 86.5t45.5 118.5t-20.5 157t-48.5 168.5 t-69 155.5t-77.5 136q-64 -96 -132 -266t-78 -276zM267 1477.5q-30 -105.5 4 -245.5t102 -299q150 214 215 295.5t141.5 179.5t105 173t27.5 99l-46 -21q-23 -1 -63 46t-104 69t-102 14t-98 -42t-106 -98.5t-76 -170z" />
<glyph unicode="9" horiz-adv-x="1040" d="M23 1142q-23 88 13.5 215.5t105 235.5t143.5 180.5t154.5 112.5t148 55t179 -5.5t179 -103.5t96.5 -246.5t12 -309t-62 -356t-120.5 -339.5t-140.5 -213t-168.5 -172t-205 -148.5t-121 -67t-36.5 -6.5t-25 26t32 39.5t103 49.5t223 201t221 337t152 612 q-79 -60 -194 -111.5t-195 -91t-180 -50.5t-195.5 28.5t-118.5 127.5zM125.5 1331.5q-9.5 -70.5 20.5 -138.5t109.5 -105.5t166 -17t232.5 103.5t199 139.5t47.5 150t-47.5 196t-84 140.5t-86.5 64.5t-139.5 1.5q-95 -24 -152.5 -72.5t-127 -144t-99 -171.5t-39 -146.5z" />
<glyph unicode=":" horiz-adv-x="248" d="M50 1001q-2 14 0.5 23.5t8 20t25.5 22.5t42.5 12.5t36 -6t15.5 -31t-12 -40t-21.5 -23.5t-18 -14t-22 -5.5t-24 4t-20.5 13.5t-10 24zM73 641q-1 14 6 23.5t16 18t31 22.5t42 -2t26 -27.5t10 -26t-8 -36.5t-40 -30t-52 4t-27 26t-4 28z" />
<glyph unicode=";" horiz-adv-x="332" d="M133.5 104.5q5.5 15.5 19 21.5t33.5 24.5t33.5 38t20.5 60.5q-11 43 -33.5 49.5t-36.5 24.5t-16 40.5t6 34t15 25t20 27.5t39 28t42 10.5t28 -21t18 -56t2 -82t-14 -80.5t-28 -69t-38 -57t-44 -48t-39.5 -21.5t-24 18.5t-3 32.5zM183 665.5q-5 27.5 0 36t12.5 21t19 22 t40.5 17.5q29 9 41.5 0t22 -25t14.5 -49t-3 -47t-19.5 -25t-35.5 -16.5t-34 -3t-20.5 10t-21.5 19.5t-16 39.5z" />
<glyph unicode="=" horiz-adv-x="530" d="M70 775q4 21 13 42l8 19h34l9 -5q28 -1 61 4l126 3q25 3 57 0q26 1 52 17q27 -8 25 -43q-7 -32 -30 -57l-14 -14l-27 16q-28 1 -60 -4l-34 9l-23 -6l-51 -1l-54 -13q-23 1 -52 -9l-26 -12l-10 29zM75 930q4 22 13 43l8 19l34 -1l9 -5q28 -1 60 4l127 3q24 4 57 0 q26 1 52 18q27 -8 25 -44q-7 -32 -30 -56l-14 -15l-27 16q-28 2 -61 -4l-34 9l-22 -5l-51 -2l-54 -12q-23 0 -52 -10l-26 -12l-10 29z" />
<glyph unicode="?" horiz-adv-x="974" d="M50 1375.5q-17 46.5 0 114.5t53.5 112.5t71.5 94.5l-7 12q-43 56 -63.5 83.5t-16.5 33t19 16.5t46.5 -8.5t98.5 -68.5q50 19 104 47t109 44.5t100 23.5t82 5.5t67 -10.5t65 -27.5t82.5 -77t64.5 -141t-7 -165t-59 -156t-79.5 -146t-88.5 -148.5t-68.5 -152t-37.5 -161.5 t-4.5 -102.5t-4 -30t-25.5 -22t-23.5 -14.5t-15.5 3t-10 29t3 124t47.5 205t101 230t93.5 204t51 167t6 163t-53.5 110.5t-99 52t-140 -8.5t-184.5 -99.5l18 -34q18 -33 38.5 -86.5t9 -116.5t-62.5 -125.5t-125.5 -62t-106.5 21.5t-49 67.5zM124 1442q-2 -42 34 -80.5 t78.5 -24t74 71.5t14.5 97.5t-33.5 64.5t-58.5 71q-37 -40 -53.5 -61.5t-35 -59t-20.5 -79.5zM436.5 100q4.5 12 11 24t18 25.5t36.5 27.5t38.5 8.5t25 -17.5t14.5 -26.5t3.5 -34t-1 -32t-13.5 -22t-23 -15.5t-24.5 -7t-30 0.5t-31.5 12.5t-21.5 27.5t-2 28.5z" />
<glyph unicode="@" horiz-adv-x="955" d="M31.5 541.5q6.5 86.5 27.5 155.5t65.5 164.5t97.5 161t106 110t92.5 68.5t89 39.5t104 24t102.5 5.5t98 -28t83 -73t35 -128.5t-30 -222t-50.5 -186t-22.5 -55t-10.5 -22t-18.5 -32t-32 -41.5q1 -8 6 -17q7 -24 7 -37.5t-56.5 -85.5t-118 -109.5t-107.5 -57.5t-142.5 -26 t-177.5 50.5t-106.5 96t-36.5 99.5t-4.5 146.5zM111.5 568q0.5 -106 44 -179t131 -113.5t151 -38.5t108 21.5t75 46t42.5 38.5t31 39.5t24 38t0 12t-20.5 -8.5t-34.5 -15.5t-34 -2t-29 14t-58 58.5q-24 -24 -62 -58.5t-94.5 -38t-85.5 15.5t-49.5 46.5t-25 101.5t36.5 171.5 t86 147t97 71.5t199 -12q35 13 53.5 10t25 -8.5t12 -14t7.5 -24t-3.5 -41t-44.5 -123t-51 -111t-20.5 -29t-10.5 -33t8.5 -31t22.5 -23.5t32.5 -7t32.5 13.5t42.5 51.5t51 90.5t38 123.5t18 161.5t-31 151.5t-88.5 95.5t-122.5 36t-134 -30.5t-120 -71t-117 -126.5 t-99.5 -200.5t-33.5 -216zM311.5 529.5q18.5 -65.5 69.5 -81t123 50.5l17 34q-11 177 17 248t48 98q-14 11 -24 14t-55 6t-78 -24t-59.5 -71.5t-51.5 -126.5t-6.5 -147.5zM590 636l3 -7l14 7q31 37 65.5 137.5t11.5 96.5t-34 -12.5t-18.5 -24t-24.5 -82.5t-17 -115z" />
<glyph unicode="A" horiz-adv-x="1795" d="M54 176q22 241 192 616.5t458.5 695t607.5 496.5l30 40q27 -2 52 -17l30 -37q-236 -70 -497 -338t-433.5 -666t-222.5 -678q-21 -120 -22 -217q1 -129 39 -219q66 -156 154 -165q6 -1 11 -1q89 0 284 134q208 143 301 310q-20 142 -25 336v26q1 186 67 446 q72 278 153 473.5t187.5 312t169.5 120.5q9 1 18 1q50 -1 77 -23q32 -26 34 -172v-9q0 -143 -59 -343q-61 -206 -178.5 -497t-289.5 -606l-31 -67q164 -193 219 -206q14 -3 29 -4q45 0 103 30q77 40 142.5 139.5t94.5 119.5t50 0q4 -3 4 -11q1 -34 -85 -160 q-102 -152 -280 -202q-29 -8 -58 -8q-148 0 -302 210q-18 -12 -122.5 -107t-167.5 -137q-62 -42 -180 -112q-103 -61 -225 -62q-17 0 -33 2q-140 10 -228 162q-71 123 -72 303q0 44 4 91zM1139 236q160 301 233 474.5t137 342.5q65 169 109 343q34 133 34 219q0 27 -4 49 q-9 63 -42 63q-16 1 -38 -15q-67 -46 -147.5 -200.5t-150.5 -344.5q-70 -191 -122 -463q-29 -150 -28 -276q0 -104 19 -192z" />
<glyph unicode="B" horiz-adv-x="1498" d="M0 -110l4 34l-3 14l50 167q9 18 85 240.5t135 385t103.5 265.5t94.5 246l-14 287q-33 301 -65 480l18 34q17 2 29 2q23 0 33 -7q12 -9 28 -14q8 -15 17 -35q42 -253 55 -518l-4 -13l3 -35l-4 -13l18 17q10 13 18 34q10 14 19 34l25 25q8 16 19 34l22 34l97 105l29 21 l25 25q16 5 32 16l32 16q21 9 40 9q43 0 81 -46q54 -66 60 -146q2 -31 2 -57q0 -39 -5 -65q-9 -44 -32 -103t-30 -82l-18 -34q-8 -20 -19 -38l-4 -22l56 -7l32 8l66 -16l10 -1v4l63 -20l31 -19l31 -10l28 -23l31 -18l27 -28q89 -77 115 -239q11 -70 12 -136q0 -85 -19 -163 q-33 -138 -96 -229.5t-117.5 -143t-137.5 -114.5q-82 -62 -240 -85q-35 -5 -70 -5q-123 0 -248 63q-10 12 -20 31q3 19 15 35l35 11q110 -82 200 -86h19q80 0 163 34q93 38 194 163q100 125 144 294q31 121 32 215q0 38 -6 72q-18 118 -65 197t-173 127q-70 26 -127 26 q-46 0 -83 -17q-115 -78 -172.5 -133t-139.5 -116l-16 -111q-25 -339 -50.5 -511t-77.5 -283.5t-174 -222.5l-57 -41l-46 7l-31 10l-28 -3l-38 19l-13 44l-17 31q-9 18 -16 40zM67 -137q28 -45 63 -45q19 0 41 14q61 38 114 145.5t122 472.5l72 717q-40 -93 -130 -348 l-11 -43l-19 -34l-12 -43l-95 -276q-145 -388 -145 -544v-16zM567 912q154 117 227 181t100 90.5t44.5 66.5t57.5 132q14 33 13 70q-1 68 -47 152q-33 59 -79 59q-57 0 -134 -85l-102 -131l-65 -103q-2 -85 -4 -120z" />
<glyph unicode="C" horiz-adv-x="1229" d="M7 522q25 440 255 822q230 381 524 468q285 85 330 85l2 -1q27 -2 27 -26q0 -11 -5 -26q-243 -23 -432 -139.5t-297.5 -335.5t-181.5 -523q-62 -257 -62 -515q1 -48 3 -95q14 -306 140.5 -447t306.5 -155q10 -1 21 -1q173 0 407 225l119 172q20 6 45 3l21 -24l-12 -29 l-34 -48q-13 -25 -34 -47l-72 -93q-158 -136 -232.5 -186t-164.5 -68q-46 -9 -94 -9q-47 1 -96 9q-100 18 -217 84q-116 68 -204 264q-69 153 -69 453q0 86 6 183z" />
<glyph unicode="D" horiz-adv-x="1438" d="M10 -400v39q0 109 9 237q11 150 32 252.5t41.5 210.5t81.5 322l-4 65l-5 13l-6 82l-7 38l2 40l-5 12l3 102l-7 29v207l-4 12v13q0 34 4 71l-2 83q2 32 2 75l10 64q4 32 13 72l17 69q10 30 28 58l29 57q15 24 40 47l37 46l109 68l49 -1l22 -48l-12 -11l-9 -19q-18 3 -42 1 q-113 -131 -149 -242q-37 -112 -45 -322q-4 -87 -3 -189q0 -146 7 -324q47 161 85 269.5t101.5 263.5t155 297.5t178 190t140.5 60.5q18 4 40 4q42 0 94 -16q79 -26 192 -152q112 -128 178 -498q23 -127 23 -253q0 -241 -82 -477q-125 -360 -279.5 -511.5t-339 -248.5 t-278.5 -118.5t-179 -44.5q-5 -27 -26 -72.5t-55 -79.5t-84 -46q-11 -3 -20 -3q-36 0 -54 35q-24 45 -26 171zM51 -242q1 -237 21 -264q10 -13 20 -13q13 0 28 17q28 31 44.5 81.5t26.5 355.5q4 138 4 337q0 142 -2 316q-142 -594 -142 -830zM264 740q10 -342 18 -514 q4 -92 4 -241q0 -131 -3 -305q190 2 426.5 141.5t380.5 419.5t195 595q20 125 20 239q0 175 -47 327q-78 252 -152 320t-136 90q-27 10 -57 10q-38 0 -81 -16q-76 -29 -141 -87.5t-101 -124t-98 -201.5t-206 -578z" />
<glyph unicode="E" horiz-adv-x="1268" d="M14 -122q-4 24 -5 56q0 64 19 157q28 138 110 253.5t116 157.5t120 106t118 84q13 5 20 20l-40 12q-51 0 -81.5 4t-71.5 21.5t-69 69.5t-40 132q-3 18 -3 38q0 69 33 164q42 122 82 186t93.5 131.5t114 118t153.5 101t109 60.5t112 36q89 24 130 24h6q40 -2 72 -22 l36 -16l32 -20q11 -11 12 -28q-6 -18 -16 -36l-36 8q-8 15 -24 28q-28 24 -46 32q-6 2 -17 2q-26 0 -83 -12q-82 -18 -100 -26t-68 -38t-104 -78t-94 -88t-86 -122t-80 -154t-50 -134t-16 -84t10 -62t36 -68t42 -38t72 -30t88 -26t36 -4t8 2t26 2t96 30t81.5 33t18 10 t26.5 15t24 14.5t28 11.5q13 -11 24 -28q-5 -19 -16 -40q-4 -18 -20 -32q-14 -9 -23 -10.5t-29 -7.5t-34 -14t-54 -20t-48 -17t-18 -8t-28 -11t-27.5 -9.5t-20 -6t-48.5 -18.5t-98 -58t-108 -100t-72 -86t-74 -110t-54 -102t-28 -102t-30 -124q-2 -12 -2 -29q0 -44 12 -120 q16 -105 70 -140t108 -59t136 -28h13q78 0 190 44q121 48 242 172t189 265t140 323l32 12q13 -9 24 -24l12 -40l-20 -24q-186 -380 -313 -527t-255 -214t-216 -87t-160 -26q-8 -1 -15 0q-66 0 -149 40q-93 46 -130.5 152t-51.5 180z" />
<glyph unicode="F" horiz-adv-x="1239" d="M0 1357l9 12q15 32 26 74q16 27 47 51l52 48l60 39q217 51 479 59l153 14q16 30 112 150q98 120 242 154q55 13 94 14q65 0 90 -36q39 -54 38 -100q0 -48 -43 -106q-42 -56 -129 -92.5t-294 -36.5q-119 -432 -121 -891q34 1 69 13l26 13l43 -18q13 -28 13 -69l-47 -21 q-11 3 -22 13l-17 4l-43 -4l-13 -5q-13 -33 -17 -82q-61 -697 -139 -891.5t-167 -250.5q-82 -51 -138 -50h-9q-58 5 -116 65.5t-66 89.5t-25 63q-6 15 -9 35q63 -45 108 -115q44 -70 107 -80q6 -1 12 0q55 0 105 86q54 96 96 243t83 590l24 262q-49 -7 -129 -47l-52 -13 l-18 57l5 8l43 9l73 26l70 35q42 560 165 932q-99 -18 -223 -18t-249.5 -28.5t-167 -90t-61.5 -93.5l-21 -65q0 -33 8 -77l48 -48q33 -15 78 -21q33 -9 73 -26l9 -30q-16 -18 -35 -30l-151 47q-32 11 -69 30l-43 56q-7 35 -22 78l5 17zM946 1656h28q363 0 362 195 q0 12 -1 24q-33 13 -67 13q-146 0 -322 -232z" />
<glyph unicode="G" horiz-adv-x="1174" d="M6 390q7 108 55 252t51 154.5t10.5 20.5t24.5 52t40.5 80t33.5 59t54.5 102.5t85.5 134t133.5 172.5t176 199t219.5 143q85 40 166 40q48 0 94 -13q112 -34 112 -66q0 -3 -2 -6q-13 -35 -32 -23t-36 26.5t-88 28.5q-24 5 -50 5q-51 0 -110 -18q-88 -28 -202 -121 t-206 -254.5t-144.5 -282.5t-60 -144.5t-18 -42t-50.5 -141.5t-53 -225q-14 -106 -14 -171t22 -142q22 -79 80 -126t168 -55q7 -1 14 -1q108 0 286 128q189 136 245.5 250.5t70.5 136.5l25 37v44l31 38l13 13l22 -11q18 -16 29 -41q-1 -17 -11 -36q-6 -35 -25 -81 q-65 -1217 -294 -1395q-212 -163 -341 -163q-11 0 -22 1q-133 16 -210 106.5t-108.5 181t-36.5 111.5q-1 5 -1 12q0 20 11 53q14 43 42 19t36.5 -64t20.5 -65.5t27 -70t80.5 -128t129.5 -93.5q13 -1 26 -1q57 0 132 32q93 40 183.5 166t113.5 272.5t33.5 295t27.5 544.5 q-203 -208 -366.5 -312t-299.5 -115q-15 -1 -30 -1q-115 0 -188 71q-82 80 -107 200q-20 95 -20 183q0 23 1 45z" />
<glyph unicode="H" horiz-adv-x="1655" d="M4 612q-2 8 -2 13.5t2 8.5q4 6 20 18t30 26t58.5 45t84 60t245.5 117l34 14l10 54q53 482 53 644v6v88q0 72 1 76q2 6 10.5 11t18 6t42.5 -1t41 -9t12 -18q3 -6 2 -82q0 -59 -2 -161q-4 -232 -51 -580l53 17l526 165q11 13 16 28q51 266 81 358.5t61.5 156.5t78 125 t115.5 95q69 33 153 37q3 0 5 1q80 0 124 -109q32 -79 32 -141q0 -27 -5 -49q-19 -78 -109 -217t-425 -302q-40 -456 -40 -762v-15q1 -310 81 -411q78 -99 135 -99h2q57 2 67 21t32 25t30.5 0t14 -16t-6.5 -28t-62 -34q-23 -7 -52 -8q-36 0 -81 12q-82 20 -147 90 q-66 72 -102 200q-31 110 -31 381q0 45 1 93q6 346 35 506l-177 -43l-419 -134l-14 -120q-132 -822 -377 -1110q-52 -48 -63 -48q-3 0 -3 4q0 11 26 52q68 107 124 310t162 784l23 88q-116 -17 -246.5 -94.5t-135 -88t-12 -17.5t-47.5 -75q-15 6 -21.5 13t-10.5 23z M1317 1168q92 33 237.5 141t199.5 208q43 80 43 139q-1 14 -3 28q-14 68 -58 97q-23 15 -49 15t-56 -14q-61 -28 -91 -62t-84 -146t-110 -320z" />
<glyph unicode="I" horiz-adv-x="1355" d="M-8 -50v6q0 35 51 35q21 0 51 -6q41 -8 95 -8q91 1 221 23q208 36 260 84q21 19 41 18q31 0 61 -44q6 -9 6 -17q0 -59 -319 -91q-296 -29 -296 -71q-1 -9 15 -19q82 -54 227 -86q65 -14 127 -15q74 0 143 21q126 38 236 166l-19 60q-201 460 -222 812q-5 90 -5 176 q0 250 45 468q61 292 268 435q132 91 212 92q45 1 74 -29q80 -80 106 -264q12 -82 12 -193q0 -137 -18 -319q-32 -330 -87 -621t-227 -653q67 -105 100.5 -134t57.5 -46.5t56 -31.5q29 -12 69 -12h9q46 2 64 27.5t41 50t31 27.5t20 4t12 -11t-12.5 -34t-34 -45.5 t-43.5 -35.5t-52 -16q-20 -3 -41 -3q-11 0 -23 1q-34 2 -90.5 20t-132.5 93q-14 19 -34 36q-17 16 -45 48q-35 -53 -89 -92.5t-217 -81.5q-50 -13 -106 -12q-124 0 -278 64q-222 94 -268 130t-52 94zM748 766q26 -295 99 -484.5t109 -305.5q192 547 228 804q34 258 54 490 q5 61 6 125q0 177 -40 363q-30 138 -98 138q-56 0 -140 -98q-184 -214 -214 -475q-16 -140 -16 -290q0 -130 12 -267z" />
<glyph unicode="J" horiz-adv-x="1438" d="M4 -420q3 10 43 14h4q40 0 108 -70q72 -73 176 -117q50 -21 117 -21q73 0 166 24q179 48 269.5 118.5t139.5 154.5t101 252t87.5 432t62.5 636.5t28 532.5t19.5 180.5t30 44.5t71 64t43 32.5t-1 -2.5t29.5 13q11 6 28 6h8q23 -2 45 -8q15 -3 15 -14q0 -6 -4 -14 q-11 -22 -20 -29.5t-26 -16.5t-69 -64.5t-56 -509t-83.5 -907.5t-229 -642.5t-262 -243t-280.5 -73.5q-63 -7 -118 -7q-93 0 -166 20q-115 32 -186.5 98.5t-82.5 86.5q-8 16 -8 25q0 3 1 5z" />
<glyph unicode="K" horiz-adv-x="1164" d="M7 -689l17 14q57 70 132.5 247t228.5 836l-2 26q-97 -31 -154 -31q-22 0 -38 5q-56 17 -82 50t-32 73q-1 10 -1 21q0 37 14 97q19 77 81 121q57 40 110 41q4 -1 9 -1q57 -4 130 -70l8 25q6 172 6 323q0 366 -36 603l-1 46l105 14q28 -22 40 -61q12 -163 11 -392 q0 -208 -9 -470l-3 -188q75 41 124 89.5t124.5 152.5t139 227t111.5 248.5t64 212.5q15 78 15 103v5q-2 21 -8 45t-13 41q-8 16 8 31q9 8 18 8q6 -1 14 -5q16 -12 28 -40t22 -76q4 -17 3 -38q-1 -38 -13 -92q-20 -82 -41 -162t-109.5 -253.5t-208 -329.5t-234.5 -242 q104 -126 229.5 -280t194 -213t121.5 -96t94 -71q40 -35 126 -61q47 -14 107 -14q50 0 109 10l82 -20q-70 -36 -113.5 -51.5t-94.5 -18.5q-26 -2 -52 -2t-52 2q-54 3 -134.5 51.5t-178 146t-161 156.5t-130 135t-121.5 141.5t-98 114.5q-17 -20 -25 -58 q-29 -242 -112 -563.5t-232 -597.5l-29 -23q-23 3 -50 16zM161 536q-3 -13 -3 -23q0 -33 31 -45q22 -9 45 -9q20 0 41 7q45 14 73.5 29.5t50.5 44.5l13 77l-14 11q-13 25 -37.5 30.5t-45.5 5.5t-61 -14.5t-60 -38t-33 -75.5z" />
<glyph unicode="L" horiz-adv-x="683" d="M15 -387l30 59l55 61l64 31l100 23q33 112 61.5 443t74.5 905.5t335 706.5q20 6 29 6t9 -5q0 -10 -28 -37q-60 -59 -133 -206t-93 -476t-48.5 -700t-82.5 -630q223 -103 342 -147.5t271 -80.5q88 -21 155 -20q48 0 84 10q86 26 119.5 96t56.5 85q26 -2 47 -25 q-2 -25 -12.5 -65t-52.5 -88q-42 -47 -159 -81q-37 -11 -86 -11q-104 1 -261 49q-230 72 -512 214q-18 -124 -104 -208q-62 -61 -129 -61q-25 0 -52 9q-82 28 -82 114q0 14 2 29zM100 -401q12 -46 38 -46q12 -1 26 9q48 30 88 171q-137 -6 -152 -134z" />
<glyph unicode="M" horiz-adv-x="2072" d="M30 -344q30 210 74 403t64.5 296.5t56 236.5t97.5 459q-54 136 -207 250q7 92 45 143q48 -16 130 -165l94 -138q250 473 394 535q29 13 58 13q109 0 194 -192q83 -187 83 -625q0 -127 -7 -275q110 689 219.5 865.5t184.5 219.5q54 31 115 31q25 -1 49 -5q88 -16 153 -122 q63 -103 63 -418v-20q-2 -331 -44 -519q-43 -187 -66 -469q-5 -59 -5 -109q-1 -189 69 -247q49 -41 93 -40q34 0 66 24q71 58 93 163q18 87 27 87q2 0 3 -4q9 -22 9.5 -51.5t5.5 -91.5v-11q-1 -58 -45 -128q-45 -69 -137 -68h-21q-109 8 -197 100q-85 87 -85 295v17 q4 222 38 482q34 261 48 563q3 52 2 99q0 223 -58 319q-37 62 -86 62q-44 0 -96 -48q-112 -102 -180 -326.5t-111 -492t-84 -435.5t-92 -170q-27 179 -41 467.5t-34 537.5q-22 250 -100 338q-36 40 -76 39q-48 -1 -102 -57q-100 -104 -256 -429q53 -207 120 -505 q63 -279 63 -475v-27q-4 -204 -25.5 -322t-74 -268.5t-109 -224t-136.5 -102.5q-30 -11 -58 -11q-44 0 -82 30q-60 48 -94 176q-17 67 -16 156q0 83 14 184zM90 -584q16 -130 78 -142q15 -3 29 -3q43 0 71 25q38 33 87 126q49 92 91 298q40 198 40 316v8q-2 118 -27.5 326.5 t-102.5 558.5q-65 -324 -92 -440.5t-66 -302.5t-82 -413q-31 -164 -31 -278q0 -43 5 -79z" />
<glyph unicode="N" horiz-adv-x="1581" d="M56 -320q-10 64 -10 133q0 115 29 241q47 201 97.5 364t115.5 297.5t136 309.5q-73 381 -127 533q7 34 25 34q15 0 37 -22q49 -50 154 -429q114 133 132 171.5t135.5 177.5t178.5 182t103 54q42 12 88 14h14q40 0 80 -10q48 -12 144 -71t157.5 -219.5t78.5 -339.5 q3 -32 3 -64q0 -145 -63 -281q-77 -167 -144 -429q-35 -139 -36 -250q0 -100 28 -176q59 -162 150 -161h2q92 2 139 118l57 -54l-36 -85q-32 -14 -86 -28q-22 -6 -48 -6q-40 0 -88 12q-82 22 -150 122q-66 100 -72 268q0 8 -1 16q0 167 106 489q102 311 102 531q-1 18 -1 36 q-10 230 -106 344q-96 112 -142 148q-36 28 -81 28q-13 0 -25 -2q-60 -10 -110 -42.5t-139 -122t-148 -179.5t-191 -275q206 -597 231 -797q16 -129 16 -234q0 -59 -5 -112q-14 -146 -46.5 -227t-53.5 -119.5t-92.5 -107t-173.5 -91.5q-61 -14 -108 -14q-30 1 -54 7 q-60 16 -117 81t-85 237zM114 -177q8 -279 76 -333q45 -35 100 -36q28 0 60 10q92 28 146 76q52 48 106 150q56 105 56 334q0 231 -203 918l-111 -236q-231 -586 -230 -866v-17z" />
<glyph unicode="O" horiz-adv-x="1356" d="M68 398q68 300 179.5 533.5t231 369t201.5 170.5t194 39q10 0 20 1q99 0 175 -37q86 57 164 169l40 -4q21 -8 40 -24q-91 -115 -181 -191q70 -16 138 -196q68 -179 70 -385q0 -8 1 -16q0 -199 -36 -425q-37 -234 -169 -510t-344 -374q-126 -58 -255 -57q-89 0 -179 27 q-222 66 -290 338q-35 137 -34 281q0 142 34 291zM220 502q-19 -105 -20 -225q0 -139 26 -297q48 -296 130 -381q80 -82 221 -82h11q148 3 279.5 179t173.5 300t98.5 346t74.5 379q10 87 11 170q0 67 -7 133q-15 146 -41.5 213t-80.5 136q-80 -103 -131 -167t-101 -110 q-50 -44 -110 -70q-37 -15 -77 -16q-27 0 -53 6q-68 16 -122 181q-141 -204 -190.5 -337t-91.5 -358zM568 1280q-1 -4 -1 -9q0 -21 22 -67q27 -56 91 -61h10q61 0 136 58q82 63 194 211q-17 12 -75 12q-35 0 -85 -4q-132 -12 -188 -52t-104 -88z" />
<glyph unicode="P" horiz-adv-x="1107" d="M0 1790l4 37l37 9l9 -9q36 -1 56.5 -18.5t59 -72.5t74.5 -190.5t39 -159t6 -41.5t19 -59l12 -53q28 98 68 218.5t118.5 261.5t135.5 186.5t114 78.5t156 47q29 4 57 4q67 1 126 -23q85 -34 145 -252q24 -86 24 -175q0 -137 -57 -281q-93 -238 -203.5 -305t-175.5 -85 t-156 -22q-22 -1 -40 -2q-55 0 -67 11q-16 14 -13.5 34t50.5 9q29 -7 70 -7q28 -1 62 3q84 8 184 65t140 188t52 219q8 58 9 117q-1 31 -3 62q-6 91 -28 172q-20 81 -98 149q-52 46 -117 46q-30 0 -63 -10q-102 -32 -209 -190.5t-155 -309t-56 -228.5q-7 -63 -7 -124v-29 q2 -75 28.5 -197t68.5 -312.5t54 -333.5q9 -105 10 -223q0 -42 -2 -86q-4 -166 -43.5 -281t-78.5 -152.5t-77.5 -49.5t-76.5 -13h-1q-37 1 -57 65q-22 66 -26 158q-2 36 -1 85q0 76 4 183q7 176 29 425.5t44.5 421t29.5 361.5q-117 465 -188.5 553.5t-95.5 124.5zM238 -366 q2 -90 24 -108q19 -15 35 -15q3 1 5 1q20 2 45.5 29t44 83.5t19.5 286.5v13q0 224 -33 436q-34 218 -69 407q-21 -221 -28 -358t-25 -411q-17 -253 -17 -350q-1 -7 -1 -14z" />
<glyph unicode="Q" horiz-adv-x="1793" d="M26 286q-13 98 -13 184t13 160q27 150 59.5 272t73.5 206t134 226t333 310t414 192q94 13 155 13q51 0 78 -9q60 -20 77 -23.5t38 -4t49 -14.5t52 -34t66 -60t76 -93.5t63.5 -152t37.5 -279.5q2 -22 2 -45q0 -165 -54 -372q-62 -236 -155.5 -398.5t-186 -282t-173 -184 t-130.5 -106.5q72 -37 232.5 -131t342.5 -126q44 -7 93 -7q150 0 338 72q250 96 323 180.5t87 110.5t21.5 31.5t18 10t20.5 -1.5t16.5 -12.5t12.5 -15.5q3 -6 3 -12q0 -4 -2 -8q-4 -10 -42 -56t-237.5 -181.5t-411.5 -162.5q-64 -8 -126 -8q-144 0 -280 44 q-195 63 -320.5 127t-178.5 83l-56 -48q-177 -97 -236.5 -110.5t-95.5 -19.5t-70 -10q-14 -2 -27 -2q-20 0 -39 4q-32 6 -92 30t-69 72q-3 13 -3 26q0 33 19 63q25 41 64.5 71t115 55t144.5 29q44 2 87 2q24 0 48 -1q66 -2 226 -57l48 52q188 160 258 268t123.5 226.5 t123.5 324t94 430.5q11 101 11 179q0 96 -17 156q-29 111 -69 159.5t-68 62.5t-58 18t-43.5 2t-28 -8t-28 -11.5t-28 -14t-40.5 -24.5t-37 -24.5t-22 -20t-21 -20.5t-20 -22t-30 -35t-28.5 -35t-12 -30t-5.5 -33t0 -22t12 -12t32 -24t40 -10t30 4t16 -10t2 -20t-14 -18 t-28 -7.5t-36 -4t-44 17.5t-32.5 29.5t-16 26t-16 26.5t-10 28t-1.5 32t6 36t52 100t74 110.5t82 68.5q-122 -8 -219 -47t-234 -150.5t-263.5 -259t-216 -325t-129.5 -306t-50 -283.5q-2 -35 -2 -70q0 -123 27 -253q35 -167 104 -212t71.5 -51.5t4 -16t-5 -11.5t-12.5 -10 q0 -1 -2 -1q-13 0 -72 39q-68 47 -113.5 156.5t-72.5 303.5zM364 -314q38 -34 86 -56q41 -18 87 -18h15q54 4 106 26t119.5 58.5t95.5 63.5q-93 35 -192 52q-94 17 -169 17h-8q-79 -1 -128 -55q-28 -31 -28 -55q0 -18 16 -33z" />
<glyph unicode="R" horiz-adv-x="1260" d="M41 -432q12 139 50 389t76 404.5t81 454.5q-28 235 -62 406.5t-51.5 276t-31.5 117.5t-10 35t40 8.5t66 -61t74 -228t54 -254.5q7 -52 13 -52q2 0 4 10q8 32 12.5 37t82.5 170t220 293.5t258 176.5q58 24 104 24t80 -24q68 -47 96 -217q8 -46 8 -93q0 -127 -56 -262 q-76 -185 -154 -300t-170 -233q283 -16 283 -272q0 -18 -1 -38q-7 -95 -7 -182q0 -180 31 -323q46 -211 166 -321q94 -87 151 -87q16 1 29 7q60 30 86 97q25 67 41 109q15 42 45 42h1q29 -1 29 -16.5t-40 -93.5q-38 -74 -51 -101t-66 -57t-105 -40q-11 -2 -23 -2 q-49 0 -129 33q-100 41 -194 221q-68 131 -68 344q0 82 10 176q9 85 9 151q0 198 -81 225q-93 32 -127 32q-5 0 -9 -1q-28 -6 -38 -4.5t-19 1t-18 -4t-277 -204.5q-14 -139 -14 -259v-30v-24q0 -128 -18 -328q-20 -220 -72 -315t-118 -163q-37 -37 -66 -37q-24 1 -42 25 q-42 54 -52 71t-26 85q-9 39 -9 100q0 46 5 106zM127 -658q7 -38 18 -72q8 -26 27 -27q6 -1 13 3q29 12 62 121.5t51 255t24 491.5q1 80 1 148q0 228 -15 330q-10 64 -17 64q-8 0 -13 -76q-10 -146 -46.5 -321t-65 -355.5t-37.5 -352.5q-5 -97 -5 -151q0 -42 3 -58zM369 955 q56 -361 62 -435q3 -32 3 -56q0 -33 -5 -53q164 109 250 191.5t174 219.5t140 263.5t60 214.5q3 30 3 60q0 58 -11 118q-16 90 -42 138q-12 22 -42 22q-35 0 -96 -30q-112 -56 -242 -235t-254 -418z" />
<glyph unicode="S" horiz-adv-x="912" d="M-176 1472q0 150 86 276q86 128 197 180t160.5 72t106 32t112.5 17q20 2 40 2q36 0 74 -6q58 -9 154 -61t144 -104t56 -60q5 -5 5 -9q-1 -3 -3 -5q-6 -6 -37.5 11.5t-102.5 82.5q-72 64 -154 86q-38 10 -89 11q-59 1 -135 -13q-142 -24 -290 -180t-162 -308 q-3 -31 -3 -60q0 -116 44 -214q55 -122 119 -258t290 -394.5t356.5 -510t136.5 -407.5q1 -15 1 -30q0 -142 -53 -287q-58 -160 -148 -273q53 1 76.5 6t6.5 25.5t-7 6.5t4.5 -21t11 -26.5t10 -25t-19.5 -4.5t-33.5 1t-77.5 -7q-77 -133 -136 -188.5t-123.5 -96.5t-147 -64.5 t-170 -23.5t-104.5 64q-4 14 -4 30q1 52 47 110q60 76 144 126t119 63t88 33q28 10 83 10q48 0 115 -8q67 107 101 179q33 73 45 225q3 34 3 68q0 122 -33 254q-42 170 -130.5 344t-180.5 304t-177 236.5t-165.5 220t-164.5 265.5q-85 152 -85 304zM168 -1226q6 -56 32 -76 q8 -5 19 -5q31 0 87 33q80 46 163.5 129t114.5 169q-60 13 -104 13q-32 0 -56 -7q-58 -16 -111 -48.5t-79 -57t-48 -59.5q-18 -29 -19 -72q0 -9 1 -19z" />
<glyph unicode="T" horiz-adv-x="1224" d="M7 1362q-2 10 -2 22q0 30 15 66q20 48 44 68.5t34 31.5q12 12 102 46q73 28 230 28q37 0 78 -1q218 -8 474 -14q30 7 44 44q48 140 63 168.5t52.5 83t94.5 92t92 41.5q12 1 25 2q24 0 50 -6q40 -8 57 -35t19 -64q0 -6 1 -11q0 -31 -10 -61q-11 -35 -26 -66t-59 -79 t-72.5 -65.5t-41.5 -25.5t-30.5 -15.5t-39 -18t-75.5 -36.5q-8 -75 -34.5 -452.5t-74 -852.5t-100 -669.5t-102.5 -302.5t-107 -159.5t-126 -83.5q-70 -32 -204 -61q-74 -16 -114 -16q-34 0 -44 11q-4 4 -4 8q0 20 106 36q128 20 247 97t173.5 206.5t102.5 621t68.5 769 t35.5 462t44 371.5q-230 23 -460 36q-54 3 -99 3q-148 -1 -204 -33q-73 -42 -83.5 -56.5t-19 -27t-13 -44t11 -61.5t41.5 -53q35 -10 35 -48l-26 -30l-31 8q-32 10 -70 14q-44 48 -52.5 60t-15.5 52zM1135 1610q50 12 87 31t85 64t75 79q28 35 34 91q1 11 1 20q1 39 -21 51 q-12 7 -27 8q-16 0 -33 -10q-33 -18 -61 -44.5t-66 -83.5t-74 -206z" />
<glyph unicode="U" horiz-adv-x="1511" d="M28 418q29 200 81.5 342t156 337t182.5 279t93 88t24 -18q2 -4 2 -9q1 -19 -33 -42q-42 -29 -100 -121.5t-95.5 -178t-84.5 -229.5q-48 -146 -64 -414q-6 -105 -6 -188q0 -129 15 -206q24 -126 70 -184t102 -88q49 -26 105 -26h16q64 4 162 110t177.5 257.5t131.5 256 t88 188.5q-11 84 -31 208q-11 67 -11 151q-1 72 7 157q16 185 40.5 259.5t82.5 136.5q58 60 126 96q31 16 55 16q28 0 46 -22q33 -42 37 -82q1 -9 1 -20q0 -39 -11 -108q-14 -88 -110 -380t-136 -412q12 -180 46 -384t65.5 -282.5t60.5 -109t73 -46.5q41 -15 75 -14h6 q36 2 48 17t21 11t13 -12t4 -18t-8 -28t-32 -20h-15q-26 0 -78 4q-70 6 -116 41t-76.5 67t-79.5 122.5t-95 483.5q-108 -204 -164 -306t-116 -174t-114 -122q-53 -50 -125 -72q-55 -17 -115 -16q-19 0 -37 2q-80 6 -201.5 88t-154.5 248q-18 88 -18 186q0 86 14 180z M1137 723l57 158q94 275 126 417q29 124 28 176v12q-3 28 -18 28q-10 0 -26 -12q-38 -31 -75 -94t-53.5 -141.5t-26 -183.5t-12.5 -360z" />
<glyph unicode="V" horiz-adv-x="1185" d="M-48 1174q4 12 17 21t66 89.5t105.5 80t107 -46.5t76 -132t70.5 -370q49 -282 69 -588q18 -272 17 -393v-27v-25q0 -105 20 -233q21 -142 35 -142q14 2 54 47.5t100.5 131.5t124.5 291.5t98.5 524t66 575.5t93 470.5t139.5 324t172.5 166.5t162.5 67q44 7 76 7 q17 0 31 -2q39 -5 43 -27q2 -10 1 -19q-1 -11 -3 -21q-4 -18 -36 -6q-4 1 -9 1q-37 0 -141 -72q-118 -82 -188 -180t-163.5 -360t-138 -618t-77.5 -554.5t-57 -318t-69 -203.5t-102.5 -152t-96.5 -103t-52 -44.5t-32 -15.5q-8 -2 -16 -2q-10 0 -18 4q-15 7 -28 21 t-28.5 127.5t-27 351.5t-66 608.5t-114.5 557.5t-93 202t-56.5 12.5t-45.5 -18.5t-49 -42t-35 -13q-8 12 -7.5 22.5t4.5 24.5z" />
<glyph unicode="W" horiz-adv-x="2305" d="M-21 1023q-11 26 -11 57q0 40 18 88q33 87 72 131t133 86q88 39 161 40q4 0 10 -1q78 -3 192.5 -42t213.5 -213t144 -319.5t86 -923.5l-8 -173q91 292 295 739q-3 207 -17 312q-8 58 -8 128q0 58 6 124q12 148 49.5 260t106 198t116.5 100q12 3 24 4q34 0 66 -33 q42 -43 49 -87.5t7 -76.5t-44 -204.5t-78.5 -262.5t-66.5 -177.5t-60 -142.5v-64q23 -244 74 -498q48 -239 144 -239q6 0 12 1q65 101 256 607t286 724t166 354t159 236.5t134 120.5q17 7 33 7q26 0 47 -22q32 -35 62 -72q19 -24 20 -42q0 -10 -6 -18q-16 -23 -23 -16 t-37 21q-19 9 -42 8q-12 0 -24 -2q-37 -7 -55.5 -25t-87.5 -114.5t-161 -251t-204.5 -455.5t-202.5 -499t-145 -349.5t-87 -202t-41.5 -60.5t-36.5 -27q-30 -8 -65 -9q-83 2 -129 77t-62 139t-34.5 128.5t-68.5 298.5l-19 -23q-128 -285 -153.5 -342t-67 -223t-91.5 -405 l-19 -14l-73 10l-23 13q19 164 19 364q0 178 -15 386q-32 441 -71 567.5t-131 281t-134 195.5q-41 42 -119 74q-58 24 -106 24q-17 0 -34 -4q-62 -12 -116.5 -49t-74.5 -140q-9 -47 -8 -81q0 -40 12 -61q23 -39 72.5 -67.5t80.5 -30t35.5 -8t7 -16t-36.5 -18.5t-48.5 -4.5 t-39 16t-42.5 17.5t-25.5 16t-51.5 53.5t-65 101.5zM1426 1242q-21 -83 -22 -176q0 -104 27 -220l8 -54q69 162 101.5 259t49 173.5t22.5 132.5q4 35 4 71q0 22 -2 42q-4 56 -26 66q-3 1 -7 1q-23 1 -63 -55q-46 -64 -92 -240z" />
<glyph unicode="X" horiz-adv-x="1259" d="M-208 1734q8 53 29 128t55 107.5t72 54.5q26 15 69 14q19 0 43 -3q74 -10 166 -67t125.5 -90t48.5 -54.5t69 -99t78.5 -118t84.5 -182t141 -437.5l8 -19l24 34q192 405 266 587t82 201t41 20q34 2 42 -6l6 -3q-2 -1 -21 -67q-20 -70 -76.5 -203.5t-170 -375 t-130.5 -318.5q72 -258 123.5 -413.5t113 -319t169 -393.5t230 -341.5t210.5 -135.5q41 -12 77 -12q40 0 74 14q64 28 81.5 38t34.5 -25q3 -6 3 -12q0 -25 -62 -43q-76 -20 -162 -30l-24 -2q-76 0 -156 51q-94 59 -164 127.5t-147 190.5t-131.5 222.5t-119 264.5t-126 366.5 t-110.5 295.5q-21 -36 -76 -144t-192 -359.5t-160 -291.5t-33 -58.5t-31.5 -35t-51.5 -14.5q-33 2 -33 31q-1 30 71 142q74 118 183 331.5t278 567.5q-55 155 -96.5 250t-79.5 187.5t-82 185t-97.5 167.5t-123.5 143q-68 68 -130 92q-39 16 -74 15q-19 0 -37 -5 q-49 -14 -77 -89t-32 -120q0 -5 -1 -10q1 -41 25 -86q28 -51 83.5 -59t67.5 -19t7 -25.5t-16 -28.5q-10 -13 -29 -17q-4 -1 -11 -1q-22 0 -68 9q-60 12 -74 35t-38.5 63t-35.5 92q-6 30 -6 60q0 23 4 46z" />
<glyph unicode="Y" horiz-adv-x="1271" d="M-206 1504q-8 22 -8 49q0 36 14 83q26 80 93.5 149.5t162.5 75.5q8 1 16 1q82 0 125 -56q47 -60 70.5 -109t52.5 -153q11 -37 11 -117q0 -142 -33 -419q-19 -154 -19 -268q0 -206 61 -280q92 -114 227 -114h7q139 3 272 158q121 143 121 234q0 8 -1 16q55 697 93 841 t86.5 216t92 115.5t85 66.5t69 27t38.5 5t23 7q3 1 6 1q10 0 23 -15q15 -17 15 -29q0 -3 -17 -98q-14 -82 -18.5 -97t-55 -169t-82.5 -257.5t-52 -173t-45 -138t-118 -295.5q-3 -118 -12 -215.5t-10.5 -281t-20.5 -434.5t-53.5 -482t-107.5 -371t-130 -216t-125 -134.5 t-156 -83.5q-76 -22 -137 -22q-9 0 -17 1q-59 3 -89 3q-5 0 -9 -1v0q-30 0 -52 40q-4 7 -4 12q0 14 26 14q19 0 52 -8q57 -12 108 -12q34 0 66 6q78 13 209.5 157t175.5 326t54.5 207.5t38.5 372.5t32 501t25 448q-150 -194 -259 -256q-76 -42 -170 -42q-42 0 -89 9 q-149 28 -257 165q-59 73 -59 255q0 156 43 392q52 286 52 438q0 120 -32 157q-69 78 -126 78h-7q-60 -5 -103 -51.5t-49 -130.5q-4 -60 -4 -84q0 -11 1 -14q2 -14 56.5 -42.5t65.5 -32t21 -10.5t8.5 -18.5t-6.5 -23.5t-57.5 -3.5t-103.5 27.5t-57.5 27.5t-17 17t-29.5 58.5 zM1103 848q48 170 64 219t38 116t59 175t116 352q61 189 61 234q0 14 -5 14q-3 1 -6 1q-22 0 -58 -25q-41 -28 -75 -91.5t-80.5 -196.5t-72.5 -340q-23 -192 -23 -213q0 -36 -18 -245z" />
<glyph unicode="Z" horiz-adv-x="1279" d="M-4 -996v5q0 11 6 29q8 22 40 52t46 48t30 32t42 52t40 54t71.5 124t106 208t196.5 478t210 532t156 340t192 345q-60 -10 -318 -35.5t-443.5 -79t-221 -95t-47.5 -59.5t-16 -46t0 -50t2 -33t-10 -20t-20.5 -7.5t-18 14t-13.5 34.5t-6 48t-2 32t2 22t30 54t64 62t104 52 t218 68.5t346 65.5q174 23 244 23q6 -1 12 -1q47 -2 69 -1h14q17 1 33 5t23.5 10.5t14 16t46.5 63.5t54 70t20.5 24.5t16 16t47.5 33.5t58 28h4q20 0 48 -14q32 -16 48 -48t14 -54t-22 -64t-82 -72t-108 -46t-64 -28t-37.5 -51t-143.5 -259t-150 -286t-70 -178t-192 -495.5 t-184 -441.5t-157 -236q36 19 186 91q128 62 243 62q19 0 39 -2q134 -12 308 -49q51 -11 103 -11q126 0 257 64q185 90 208.5 159t43.5 111t27.5 47t18 8t19 7.5t18 6t16.5 -6.5t12 -20q3 -7 3 -14q0 -4 -1 -8q-3 -10 -10 -18t-73 -98t-104 -134q-38 -45 -162 -124 q-82 -52 -222 -52q-74 0 -164 14q-250 40 -372 40h-12q-122 -2 -208 -38t-258 -206t-179.5 -177.5t-20 -14t-22.5 -14.5q-8 -6 -12 -6h-2q-4 2 -6 6t-8 14t-8 22zM1358 1400q24 0 46 12t31 16t18 10t19 28q12 27 12 43q0 11 -8 11q-10 0 -30 -14t-80 -82z" />
<glyph unicode="[" horiz-adv-x="688" d="M6 1906q6 58 38 90t80.5 40t96 -22t106.5 -130l34 -4l312 56l101 20v-88l-288 -40l-145 -36q42 -358 47.5 -785t10.5 -597t9.5 -561.5t-18.5 -754.5l384 10v-72l-111 -8l-14 4l-271 -16q-45 -186 -76.5 -225t-82 -67t-86.5 -26.5t-65 38t-36.5 99t30 107t91 79 t122.5 68.5q3 149 3.5 394t-14 635t10 892t-28.5 771q-193 -27 -219.5 22t-20.5 107zM54 1858q24 -55 96.5 -38.5t81.5 30.5t4 42t-26.5 44t-73.5 35t-79 -19.5t-3 -93.5zM104.5 -1151.5q-13.5 -50.5 13 -67.5t47 3t47.5 78.5t42.5 83t15.5 45.5q1 20 -28.5 0.5t-76.5 -56 t-60.5 -87z" />
<glyph unicode="\" horiz-adv-x="593" d="M0 1965q21 20 46 28q52 -15 76 -61l-10 -16l212 -856l227 -1041l46 -256q-19 -29 -43 -50q-53 40 -71 133q-184 1113 -483 2119z" />
<glyph unicode="]" horiz-adv-x="621" d="M0 -1151l3 88l268 31l134 32q-25 360 -13.5 786.5t14 596.5t13.5 561.5t46 753.5l-355 1l3 72l102 4l13 -4l251 9q21 131 52 169t78.5 64.5t80.5 24t58.5 -40t30 -100t-18 -79.5t-73 -49.5t-116.5 -65.5q-8 -148 -18 -393t-12 -635.5t-44 -891t-3 -771.5 q179 22 201.5 -28t14.5 -107.5t-38.5 -88.5t-75.5 -37.5t-87.5 24.5t-93.5 133l-31 5l-290 -47zM499 -1103q3 -28 22.5 -44.5t66.5 -36.5q47 -21 73.5 16.5t6.5 93.5t-87.5 41.5t-76 -28.5t-5.5 -42zM579 1797q-1 -20 27 -1.5t59 27.5t45.5 59t-9.5 67.5t-43.5 -1.5t-33 -50 t-29 -55.5t-16.5 -45.5z" />
<glyph unicode="_" horiz-adv-x="864" d="M39 -47l4 28q18 14 40 24l96 12q21 7 48 12l351 35l113 9l56 4h44l8 -16l32 -28q-8 -23 -28 -40l-36 4l-87 4l-129 -1l-292 -35q-21 -5 -48 -8l-52 -12l-48 -4l-36 -8l-12 8z" />
<glyph unicode="a" horiz-adv-x="1134" d="M18 279q-2 23 -2 47q0 92 33 191q41 124 80.5 198.5t106 153.5t137.5 138t131 90t128 44q37 7 65 7q24 0 41 -5l61 -21l46 -50l16 -21l46 12q32 0 61 -26l14 -30l-2 -32q-1 -33 -6 -106t-74.5 -225.5t-139.5 -288.5q7 -32 19 -64.5t50 -60.5q14 -10 34 -11q37 0 98 33 l40 48q12 28 35 54l18 65q17 10 35 26l25 -4l16 -21l-40 -96q-11 -28 -26 -58l-30 -57q-95 -103 -176 -103h-3q-82 2 -108.5 24t-45.5 56.5t-46 68.5l-103 -84q-66 -48 -117.5 -75t-116.5 -50q-43 -15 -84 -15q-21 0 -42 4q-61 12 -92 35.5t-51.5 59t-30.5 149.5zM163 226 q9 -79 138 -96l40 6l117 46l99 65l69 64q9 12 20 28q-1 29 -1 58q0 281 64 423q70 157 77 166t19 54l-6 7l-22 25q-42 34 -89 34h-6q-50 -2 -104.5 -24t-141.5 -114t-120.5 -168.5t-62 -141t-48 -128.5t-35.5 -144q-10 -52 -11 -103q1 -29 4 -57zM764 468q18 37 68 167 q51 129 80 225q13 44 13 69q-1 29 -19 31h-4q-32 0 -56 -54q-26 -58 -58 -162q-25 -87 -25 -222q0 -26 1 -54z" />
<glyph unicode="b" horiz-adv-x="1014" d="M-220 -44q6 29 25 44q2 -148 46 -186q43 -40 91 -56q17 -6 35 -5q30 1 60 19q47 30 114 154l34 75q-53 396 -53 556.5t15 294.5t35 252.5t55 258t87.5 248.5t127.5 154t106 54q18 5 38 6q14 1 28 -3q36 -6 54.5 -28.5t48 -68t41.5 -145.5q2 -15 3 -35q-1 -107 -59 -337 q-68 -272 -320 -1042l-91 -221q14 -109 61 -138q46 -29 82 -40q17 -5 34 -6q18 -1 36 7q34 12 104.5 76t139.5 216q68 152 86 312q13 116 13 223q0 42 -2 83q-7 146 -39.5 191.5t-60 51t-41 17.5t1 23t56 -4t76.5 -52t63 -91.5t58 -142.5q28 -81 28 -189q-1 -8 -1 -18 q-2 -120 -51 -297t-111.5 -258t-122 -120t-123.5 -61q-51 -17 -91 -17q-10 -1 -19 1q-46 6 -86 21t-66 27.5t-38.5 22.5t-50.5 53q-19 -18 -57 -74t-102 -104q-40 -30 -91 -30q-30 0 -63 10q-90 28 -120 158q-25 109 -25 148q0 7 1 12zM203 646q-1 -38 -1 -76 q0 -261 31 -475l108 351q152 546 229 777t83 287q3 25 3 49q0 29 -4 57q-8 50 -22 94q-11 35 -52 35q-10 -1 -22 -3q-60 -10 -129.5 -108.5t-144 -390t-79.5 -597.5z" />
<glyph unicode="c" horiz-adv-x="837" d="M40 460q22 128 102 308q78 179 236 273q89 53 164 53q58 0 106 -31q112 -72 119.5 -97.5t-22.5 -15t-60.5 43t-104.5 53.5q-14 4 -27 4q-59 0 -117 -73q-71 -90 -144 -219t-95 -284q-12 -81 -11 -140q0 -53 9 -87q20 -72 65 -120t113 -64q32 -8 68 -8q40 0 85 10 q85 18 131 61.5t77 101t51.5 95.5t42.5 39q-5 -59 -35.5 -110t-52.5 -85.5t-44.5 -62t-63.5 -55t-115 -45.5q-75 -18 -157 -21h-21q-68 0 -115 16q-54 20 -104.5 62.5t-75.5 156.5q-13 61 -13 126q-1 56 9 115z" />
<glyph unicode="d" horiz-adv-x="1066" d="M2 223q2 76 18.5 124t22.5 73.5t48.5 112t67.5 124.5t122 128.5t160.5 124t110 50.5t71.5 19t50.5 8.5t29.5 32.5q3 17 3 44q0 14 -1 30q-2 48 0 52t0 6v5q1 15 5 79q6 82 12 107.5t8 51t23.5 99t59 191.5t73.5 179.5t51 78t22 24.5t16.5 15t39.5 24q31 16 81 22 q14 2 26 1q34 0 56 -11q32 -16 49.5 -57t20.5 -103.5t3 -83.5t-6.5 -78t-10 -68.5t-6 -25.5t-61.5 -241.5t-67.5 -250.5t-11 -35.5t-8.5 -25.5t-8 -23t-61 -179l-148 -355q-10 -16 -17 -37l4 -51l13 -51l4 -50l47 -148q34 -82 52 -111t28 -53l29 -38l21 -38l-29 -29l-30 -9 q-1 5 -8 9l-84 110l-106 210l-21 46q-6 15 -25 25q-12 -19 -30 -37l-109 -144q-49 -52 -96.5 -82.5t-68.5 -41t-46 -19t-50.5 -15t-51 -6.5t-52.5 -2t-48.5 4.5t-42.5 17t-42 23t-38 25t-29.5 33.5t-20.5 44t-12 47q-2 14 -2 48q-1 22 0 51zM134 164q0 -16 4 -37.5t21 -55.5 t29.5 -44t31.5 -17q11 -4 34 -4q18 0 43 2q58 6 78 15.5t35 15.5t80 56t118 127t108 178l16 25l-4 42q-6 37 -8 80q-26 367 -42.5 367t-31 -4t-48.5 -18.5t-108 -65.5t-141.5 -133.5t-74 -96t-31.5 -45.5q-33 -63 -38 -77.5t-26 -73t-31 -116.5t-12 -80q-1 -17 -1 -31 q-1 -5 -1 -9zM838 821l4 -97l4 -12l-4 -38l4 -17l13 17l101 227q17 61 21 73t61 174t70 225.5t25.5 105.5t24.5 143q14 100 18 128q2 10 1 24q1 26 -5 65q-8 61 -21.5 76t-28.5 27q-14 14 -35 18q-4 1 -8 0q-15 0 -26 -13q-13 -17 -40 -69.5t-80 -293t-70 -356.5t-21 -194 q-1 -22 -1 -38q-1 -44 7 -54q10 -14 16 -22.5t8 -30.5l-30 -26z" />
<glyph unicode="e" horiz-adv-x="822" d="M2 344v14q0 92 30 226q32 146 102.5 267t154 190.5t154.5 96.5q65 25 109 25q4 -1 8 -1q46 -2 104 -41.5t96 -135.5q33 -82 33 -147q-1 -11 -1 -22q-6 -73 -45 -135.5t-117 -110.5q-76 -48 -166 -64q-53 -9 -89 -10q-24 0 -38 4q-37 10 -153 81q-22 -115 -26 -158 q-1 -12 -2 -28q0 -41 7 -108q9 -93 26 -159.5t71 -124t94 -81.5q41 -22 88 -42q27 -11 52 -12q18 0 35 6q40 14 78.5 32.5t72 80.5t49.5 129.5t24 86.5t17.5 24t16 -2.5t20.5 -17.5q4 -3 4 -15q0 -26 -22 -97q-32 -102 -64.5 -144.5t-110.5 -84.5q-78 -44 -144 -48 q-8 -1 -15 0q-61 0 -148 30q-98 34 -159 103.5t-79 108t-41.5 114t-25.5 170.5zM204 628q110 -84 199 -85q23 0 44 6q105 27 158 99t69 140q11 48 10 100q0 22 -2 44q-6 76 -34 127q-30 51 -80 54h-6q-47 0 -97 -39q-53 -42 -129 -155t-132 -291z" />
<glyph unicode="f" horiz-adv-x="832" d="M-8 299q-1 10 -1 19q0 23 6 43q9 28 21.5 52t29 46t88.5 94q22 12 50 20l11 4l43 -12l-7 -28h-36q-24 -7 -50 -20q-40 -32 -58 -52t-29 -44q-9 -20 -9 -68v-18q2 -62 37 -110q32 -44 124 -44h16l9 48q86 504 142 740t99 380t66.5 192t67 84t54 42.5t23 12t39.5 13.5 q25 7 45 7h5q21 -1 42 -10t49 -27t49.5 -49t38.5 -77t21 -114v-18q0 -73 -23 -247q-26 -196 -67 -314t-113.5 -246t-115 -181.5t-130.5 -139.5q91 -69 125.5 -106.5t64 -84.5t46 -105.5t27 -101.5t19.5 -88t17 -127q4 -47 4 -82q0 -25 -2 -44q-6 -44 -11.5 -80t-11 -68 t-30.5 -116t-52 -130t-45 -64t-39.5 -34t-32.5 -23t-36 -17q-58 -12 -71 -16q-5 -1 -13 -1q-12 0 -31 3q-31 6 -63.5 24t-81 73t-77.5 111t-39.5 85t-19.5 125q-8 82 -8 118v10q2 32 11 163t21 209t26 215q-33 -8 -61 -8q-41 0 -72 16q-54 28 -68.5 50t-22 52t-10.5 64z M278 -516q6 -98 9.5 -120t19.5 -82t28.5 -96t32.5 -66t47 -57q17 -17 43 -17q17 0 38 7q54 17 85.5 65t50.5 92t40.5 182t25.5 232q1 35 1 73q0 66 -4 143q-6 122 -27 184.5t-60.5 109.5t-98.5 97l-38 -6l-87 -60q-13 -10 -32 -20l-32 -16q-42 -490 -42 -620v-25zM323 201 l29 8l7 8l47 16l72 48q87 96 133.5 174t76.5 149.5t90 279.5t86 388q23 160 23 223q0 8 -1 15q-3 57 -23.5 86t-42 43.5t-41.5 16.5q-3 1 -6 1q-19 0 -45 -12q-30 -14 -66 -69t-321 -1299z" />
<glyph unicode="g" horiz-adv-x="1178" d="M64 268q3 126 103 317.5t249 346t210 190.5t151 95q25 7 49 19l65 -7q21 -10 42 -24q11 8 55 -6.5t54 -20t19.5 -41t13.5 -93.5q1 -16 1 -36q0 -53 -8 -134q-10 -113 -34 -185.5t-50.5 -125t-89.5 -160.5l-84 -119l-17 -223l383 364l10 -35q-137 -151 -378 -430 q-7 -29 -11 -59v-256q0 -566 -7 -725q-10 -193 -39 -269t-92.5 -131t-136.5 -81q-45 -16 -101 -16q-34 0 -71 5q-100 16 -185 132q-76 102 -76 318q0 26 1 54q11 258 172.5 532.5t450.5 535.5l13 138l-8 62q-85 -87 -133.5 -126t-144.5 -88q-79 -39 -159 -39q-19 0 -39 3 q-100 11 -141 102q-38 83 -38 196q0 10 1 20zM220 139q21 -78 68 -111q29 -19 63 -19q24 0 51 9q67 23 153 95.5t109 97.5t49 77q12 86 14 169.5t21.5 258.5t52 283.5t59.5 165.5l-26 17q-69 -28 -135.5 -91.5t-146 -167.5t-174.5 -267.5t-137 -301.5q-28 -91 -28 -156 q0 -33 7 -59zM232 -1092q4 -139 40.5 -247.5t103.5 -160.5q38 -30 86 -30q34 0 72 15q93 37 121.5 130t28.5 358.5t31 883.5q1 2 1 3.5t-1 1.5q-12 0 -145 -136q-159 -161 -251 -420q-88 -247 -88 -385q0 -7 1 -13zM817 374q55 73 108.5 177t74.5 246t24 194q1 19 1 38 q0 32 -3 61q-5 48 -25 55q-7 2 -14 2q-15 0 -31 -9q-26 -14 -81 -340q-53 -315 -53 -339l1 -22q0 -22 -2 -63z" />
<glyph unicode="h" horiz-adv-x="1012" d="M0 -233l23 206l30 410l59 672l27 167l-52 -18q-10 13 4 40l55 37q21 169 47.5 267.5t57 184t78 156t85.5 99.5q37 28 75 32q19 2 37 2t34 -2q32 -4 67 -40q25 -27 25 -79q0 -22 -4 -48q-14 -89 -49.5 -149.5t-92 -137.5t-123.5 -150q-18 -23 -88 -100q-19 -29 -24 -68 q-12 -32 -20 -72l-72 -652l-12 -96l4 -32q55 174 102 260.5t98.5 147t92 96t59 47t43.5 21t51 7t43.5 -6t40.5 -29.5t30.5 -42.5t23.5 -94.5q11 -52 11 -120q0 -34 -3 -72q-8 -114 -10 -120t-10 -74q-6 -54 -6 -69v-51v-14q0 -39 8 -106q10 -80 44 -138t58 -62t40 0t40 26 t44 48t26.5 31.5t12 14t19.5 4.5t16 -20q1 -4 1 -8q0 -12 -5 -26q-6 -18 -24 -46t-42 -52t-65.5 -48.5t-85.5 -35.5q-20 -5 -37 -5q-21 -1 -39 7q-32 14 -64.5 51t-46 70.5t-18 53t-10.5 95.5q-1 19 -1 42q0 69 13 174q18 140 28 234q4 36 4 70q0 54 -10 100 q-16 76 -26.5 88t-19 20.5t-17.5 18.5t-33 5t-58 -31.5t-74.5 -77.5t-72 -100.5t-57.5 -111t-50 -124t-64 -283.5l-36 -236l-8 -84q-2 -36 -12 -80q0 -36 -24 -64l-8 -20l-71 35zM286 1373l57 72q70 74 110.5 124t76.5 112t54 124q18 63 22 99q0 3 1 5q-1 31 -37 37 q-16 3 -28 3q-19 0 -31 -6q-20 -10 -37.5 -37t-40 -76.5t-48.5 -117.5t-90 -259z" />
<glyph unicode="i" horiz-adv-x="297" d="M21 275l21 354q50 344 95 344q4 0 8 -2q31 -4 56 -28q10 -8 16 -20l-12 -44q-65 -283 -77 -545q-3 -65 -3 -117q0 -155 27 -183t56 -27q10 0 22 3q42 13 63 101q13 7 28 8l4 -32l-4 -8q-7 -60 -41.5 -92t-66.5 -34h-7q-28 0 -62 14q-38 16 -71 76.5t-52 231.5zM154 1476 l16 75l53 32q33 -6 53 -38l27 -58q-10 -29 -27 -64q-23 -15 -48 -37q-29 10 -58 32q-12 25 -16 58z" />
<glyph unicode="j" horiz-adv-x="536" d="M-307 -1206q2 10 27 24q4 2 7 2q26 0 73 -88q53 -101 117 -130q17 -8 36 -8q50 0 110 58q82 79 110 173t42 192t22 204t20 316t36 690.5t30 660.5t16 202t22 48t71 69t77 59t26.5 21.5t15.5 13.5q8 9 20 7t24 -8t-6 -26t-23 -28.5t-14 -18t-42.5 -47.5t-49.5 -86 t-30.5 -687.5t-46.5 -979t-99 -530t-133 -260t-157 -89.5q-33 -7 -63 -7q-50 0 -89 21q-62 34 -100.5 105.5t-44.5 93.5q-5 17 -5 27q0 3 1 6zM512 1886q3 30 12 64q17 32 41 64l75 -6l47 -58q-7 -38 -23 -82q-22 -24 -53 -46l-52 -12l-18 12q-17 29 -29 64z" />
<glyph unicode="k" horiz-adv-x="877" d="M-116 -473v24q0 84 21 204q24 138 94 342.5t136 411.5l-14 287q-9 161 -9 301q0 47 1 91q4 178 16 292.5t32 175t50 110.5q29 48 63 47h2q36 -2 49 -9.5t10 -23.5t-10 -30.5t-31 -150t-42 -373.5q-12 -153 -12 -330q0 -98 4 -202q54 148 102.5 237t104.5 158q55 69 97 87 q31 13 66 12q12 0 24 -1q48 -6 66 -30.5t31 -58.5q9 -25 9 -61q0 -13 -1 -28q-5 -54 -38.5 -128t-170.5 -221q-11 -20 -12 -47q93 -54 123.5 -156t39.5 -199.5t22 -231t43 -169.5q25 -29 58 -29q8 0 16 2q43 8 56.5 43.5t33.5 37.5t24 -13t6 -33v-8q0 -11 -4 -19 q-6 -10 -16 -17t-36 -21t-48 -18q-8 -2 -18 -2q-19 0 -46 5q-42 8 -66 22t-40 37.5t-34 82t-42 236t-33 216.5t-32.5 87.5t-64.5 73.5q-26 -3 -39 -7t-39 -19q-20 -16 -30 -26.5t-82 -112.5q-11 -25 -20 -56q-12 -310 -26 -451q-47 -306 -100.5 -396t-121.5 -90q-1 0 -3 -1 q-67 0 -91 28t-28 118zM-48 -526q10 -13 21 -13q28 -1 62 85q48 118 71.5 254t64.5 473l-13 135q-134 -344 -188 -616q-32 -165 -32 -246q0 -54 14 -72zM255 618l3 -164q113 132 143.5 164.5t83.5 88.5t85 102.5t48 93.5t18 109v14q0 52 -14 78q-11 19 -29 19q-9 0 -21 -5 q-34 -15 -65 -48t-85 -118.5t-146 -291.5z" />
<glyph unicode="l" horiz-adv-x="745" d="M-190 -122q5 57 30 98t51 67t48 36t40 -4t23 -24.5t8 -24t-5.5 -19.5t-20 -8t-40 -14t-51.5 -61q-14 -30 -14 -60q0 -20 6 -40q15 -50 51 -64q15 -6 31 -7q20 -1 40 11q34 18 124.5 117.5t145.5 227.5l-34 74q-126 208 -143 560q-4 90 -4 176q0 251 36 468 q50 293 212 445q99 93 168 93q43 0 74 -38q79 -97 96 -282q5 -55 5 -123q0 -158 -28 -384q-40 -322 -106.5 -573.5t-147.5 -399.5l-20 -44l16 -44q32 -36 38.5 -43t16 -14t25.5 -23t34 -28t46 -16t52 -2t62 28t44.5 29t16 4t9.5 -11t-10 -34t-27.5 -45.5t-35.5 -35.5 t-42 -16t-52 -2t-74 20t-107 93q-12 19 -28 36q-14 16 -32 28l-28 -32q-10 -18 -24 -40q-24 -40 -69.5 -95.5t-99.5 -100.5t-138 -47h-7q-78 0 -114 35q-37 36 -45 66q-4 18 -4 46q0 18 2 41zM165 900v-34q0 -218 36 -388q39 -184 82 -247q19 -28 32 -28q17 0 23 46 q90 255 132 457t75 462q15 118 15 229q0 135 -22 261q-28 161 -91 160q-27 0 -61 -30q-112 -98 -165 -373.5t-56 -514.5z" />
<glyph unicode="m" horiz-adv-x="1297" d="M28 106q19 96 46.5 184.5t40.5 136t35 108.5t33 134q-48 160 -112 308l-20 24q2 14 8 28q23 39 47 62q30 -7 32 -40l119 -240q151 193 241 221q18 6 35 6q68 0 122 -88q52 -86 52 -289q0 -57 -4 -124q69 316 137 397q69 80 116 100q34 14 72 15q14 -1 30 -3q56 -8 97 -56 q40 -47 39 -190v-10q-2 -152 -47.5 -375.5t-47.5 -346.5v-14q-1 -111 31 -132q16 -11 36 -11q22 0 48 13q50 25 67 58t22.5 23t6.5 -24q0 -15 3 -43v-5q0 -27 -28 -58t-86 -31h-13q-68 4 -124 46q-55 42 -67 160q-4 38 -4 77q0 81 17 163q56 408 62 526q1 16 0 29 q0 94 -32 127q-13 14 -31 14q-31 0 -75 -42q-70 -66 -111.5 -200t-59.5 -195.5t-51 -249.5q-1 -30 -20 -56q-16 -23 -48 -24q-10 15 -20 36l-7 2l-8 272q-3 210 -32 318.5t-61 116.5q-4 1 -8 1q-31 1 -84 -45q-61 -52 -130 -162q19 -49 61 -216q39 -156 40 -248q0 -7 -1 -13 q-3 -94 -16 -148t-46 -123t-68.5 -102.5t-85.5 -47.5q-19 -5 -36 -5q-28 0 -52 14q-38 22 -58 81q-11 31 -11 71q0 39 9 85zM80 104q-1 -15 -1 -31q0 -29 4 -64q7 -55 35 -59q9 -1 16 -1q16 -1 26 5q14 8 44 50q30 44 49 156q11 63 11 119q0 45 -7 87q-15 94 -18.5 110 t-23.5 117q-34 -110 -38.5 -131.5t-48.5 -169.5t-48 -188z" />
<glyph unicode="n" horiz-adv-x="1000" d="M16 142q-6 34 -6 69q0 59 16 125q26 104 55 188.5t65.5 154.5t42.5 90q1 5 1 12q0 21 -14 61q-19 53 -41 147t-82 222q51 27 84 49l44 -35q36 -73 40 -95t9 -40t8 -31.5t7 -39.5t12 -48t10 -33t14 -33q56 64 66 84t76 92t85.5 93.5t44 34t48.5 18.5t48 4t44 -10t29 -12 t18 -12t27 -22t30 -30t32 -58t28 -66t12 -46q3 -23 9 -87q3 -32 3 -66q-1 -34 -3 -70q-6 -72 -23.5 -197.5t-20.5 -210.5q0 -7 -1 -14q-1 -74 31 -97q17 -13 36.5 -13t40.5 13l32 -28l-20 -44q-18 -7 -41.5 -3t-70.5 23t-73 91q-26 73 -26 143q0 68 14 207q6 66 6 126 q0 70 -8 134q-16 116 -22 128l-31 62t-45 62t-52 16q-3 0 -6 1q-28 0 -66 -32q-40 -35 -75 -75t-69 -82q-36 -42 -64 -92q-10 -17 -10 -44q0 -52 37 -142q55 -136 69 -241q9 -66 9 -121q0 -31 -3 -59q-8 -76 -26 -118t-30 -62t-52 -55.5t-98 -47.5q-34 -7 -60 -7 q-16 0 -30 3q-34 8 -66 42t-48 124zM71 202q7 -138 54 -145q17 -2 31 -2q26 0 46 7q30 11 46 37q16 25 38 91q17 50 17 125q1 23 -1 47q-6 106 -83 345l-16 -51q-132 -301 -132 -441v-13z" />
<glyph unicode="o" horiz-adv-x="934" d="M10 350q10 143 78.5 290.5t158 229.5t159.5 116t142 38q32 2 55 2q30 0 47 -2q30 -4 98 -39q60 54 74 84.5t34 85.5l40 17q24 -8 28 -38q-5 -28 -10.5 -41.5t-15 -20t-18 -17t-18.5 -34t-54 -100.5q33 -48 48 -312q2 -43 3 -83q-1 -204 -65 -322q-76 -140 -143 -193 t-143 -77t-138 -30q-16 -1 -35 -1q-48 0 -104 11q-77 15 -123 65.5t-77 138.5q-24 68 -24 168q1 30 3 64zM166 490q-16 -69 -17 -147q-1 -83 19 -177q36 -180 90 -205q39 -19 87 -19q17 0 35 2q70 9 134 58.5t126 170.5t84 305q17 149 18 301q0 35 -1 71q-70 -106 -218 -142 q-30 -7 -58 -8q-107 0 -169 113q-96 -179 -130 -323zM345 864q19 -36 121 -70q16 -5 33 -5q90 0 204 145q-54 29 -102 37q-13 2 -27 2q-38 0 -85 -16q-64 -22 -144 -93z" />
<glyph unicode="p" horiz-adv-x="934" d="M0 -1054q-10 49 -10 123q0 101 19 248q33 256 80.5 537t113.5 614l-14 71l-62 503q15 51 53 59q17 -20 24 -48l56 -242l20 -77q45 145 81.5 223t81.5 147.5t83.5 114t78 75.5t101.5 36h8q57 0 117 -56q64 -61 90 -178q15 -68 15 -140q0 -52 -8 -108q-19 -130 -107.5 -269 t-124.5 -173t-76 -62t-64 -38t-106 -22q-29 -4 -48 -4q-35 0 -36 14q-2 22 40.5 30t84 15t78.5 30.5t88.5 84.5t116.5 208q44 102 44 209q0 47 -8 95q-29 158 -91 184q-57 23 -87 23h-4q-30 -2 -78 -33t-89.5 -113t-97.5 -196q-45 -93 -45 -319q0 -52 2 -112 q83 -889 83 -1171q0 -64 -5 -97q-23 -174 -72 -250t-120 -98q-28 -9 -54 -9q-39 0 -72 21q-55 34 -80 150zM62 -779q-4 -58 -4 -106q0 -102 16 -156q24 -79 78 -85q5 -1 10 -1q47 0 68 59q22 65 26 121.5t8 191.5q1 40 1 101q0 145 -7 408q-9 375 -11.5 388.5t-7.5 201.5 q-79 -399 -122.5 -669.5t-54.5 -453.5z" />
<glyph unicode="q" horiz-adv-x="1180" d="M19 562q-2 22 -2 45q0 150 109 331q125 209 342.5 341.5t401.5 134.5l88 -60l105 13l32 -20l32 -47q15 -31 15 -80q0 -39 -10 -90q-20 -115 -104 -274.5t-179 -279.5q40 4 63 4q15 0 23 -2q20 -4 72 -10l60 -44q64 -66 100 -177t51.5 -218.5t23.5 -228.5q5 -62 5 -146 q0 -80 -4 -179q-8 -205 -40 -295.5t-64.5 -134t-128.5 -57.5q-39 -6 -73 -6q-49 0 -88 12q-65 21 -126 92t-89 222t-37 335q-1 17 -1 36q0 187 82 580q-141 -156 -265 -163q-25 -1 -48 -1q-92 0 -157 22q-81 28 -125.5 102t-63.5 243zM204 602q-1 -25 -1 -48q0 -158 63 -232 q69 -81 128 -81h7q62 5 118 37t101.5 78t99.5 163q74 402 109.5 526t89.5 242q-20 39 -38 59t-77.5 20t-174.5 -55.5t-264.5 -285t-160.5 -423.5zM738 -274q7 -174 41 -328.5t100 -221.5q49 -49 110 -49q21 0 43 5q87 23 118 118q31 91 31 229v9q-1 144 -13 286.5 t-34.5 282.5t-56.5 251t-68.5 164.5t-90.5 54.5h-4q-54 0 -102 -28q-48 -227 -64 -413q-11 -132 -11 -258q0 -52 1 -102zM827 619q57 77 145.5 255.5t101.5 279.5q5 42 5 73q0 41 -10 60q-15 29 -45 29q-4 0 -9 -1q-17 -11 -36 -28q5 -20 20 -36l4 -52l-151 -480z" />
<glyph unicode="r" horiz-adv-x="853" d="M-271 -296q4 29 4 63q11 24 26 47q26 -2 32 -16q2 -5 2 -18q-1 -22 -7 -66q-6 -41 -6 -65q0 -19 4 -27q8 -22 57.5 -3.5t88 85.5t72.5 161t91.5 272t165.5 434q-58 26 -81 50q-22 25 -32 65q-3 12 -3 26q0 32 16 73q23 59 63.5 86t70 30t59 -14t44.5 -38q16 -21 22 -47 q1 -4 1 -11q0 -34 -27 -132q185 86 300 206t133 140q24 -11 46 -30l21 -55l-17 -50l-84 -131q-161 -353 -172 -442q-3 -21 -2 -43q0 -68 26 -142q35 -96 85 -129q34 -21 65 -21q15 0 30 5q44 16 67.5 45.5t73.5 151.5q26 -5 34 -34q-4 -28 -17 -55l-25 -46l-34 -42 q-80 -63 -110 -71q-27 -8 -57 -8h-7q-34 1 -72.5 15.5t-90.5 58t-72 77t-31 98.5q-6 38 -6 73q0 26 3 52q8 60 41 128t165 333q12 19 17 42l-86 -66l-109 -70l-113 -64l-21 -45q-263 -625 -309.5 -712.5t-97.5 -160.5q-52 -73 -102 -93q-22 -9 -41 -9q-26 0 -49 15 q-40 27 -45 124zM213 760v-9q1 -53 13 -73q14 -22 54 -36q41 66 54 128q4 17 4 31q0 37 -25 55q-15 11 -30 11q-19 0 -37 -17q-32 -30 -33 -90z" />
<glyph unicode="s" horiz-adv-x="617" d="M3 835q0 13 22 87q24 80 72 140q47 60 147 106q69 32 125 31q23 0 45 -6q70 -20 85 -32t20.5 -37.5t9.5 -33t4 -46t-2 -43t-4.5 -17t-20 -10.5t-22 37.5t-14.5 74.5q-10 38 -76 68q-19 9 -40 8q-49 0 -105 -50q-79 -71 -101 -136q-16 -46 -16 -100q0 -21 2 -44 q9 -79 67.5 -147t130.5 -119.5t155.5 -147t108.5 -221.5q7 -33 6 -68q0 -100 -52 -221l41 -39q12 -16 79 -82q-10 -7 -22 -7q-31 0 -75 46l-56 25l-24 -63l-42 -52.5t-56 -54.5t-86.5 -52t-123.5 -28h-12q-61 1 -89 29q-30 32 -35 88q-1 14 -1 24q0 40 11 66q14 34 35.5 66 t77.5 76q57 44 129 46h8q70 0 175 -42q37 102 37 184q1 50 -13 93q-36 113 -91 181.5t-119.5 94.5t-141.5 69t-99.5 77.5t-31 55t-13.5 42.5q-6 23 -6 49zM158 -274q8 -52 40 -66q11 -5 27 -5q26 1 61 17q56 26 86.5 63.5t59.5 92.5l29 67q-37 47 -82 57q-26 6 -53 6 q-21 0 -43 -4q-51 -8 -93 -92q-34 -69 -34 -116q0 -11 2 -20z" />
<glyph unicode="t" horiz-adv-x="757" d="M-86 -222q-5 29 -4 51q0 26 6 44q12 32 38 44q4 -60 9 -112.5t33.5 -59.5t45 17t43.5 83t55.5 121.5t72.5 223.5l38 132l16 61l11 194q-9 272 -12 313l-48 -16l-48 -24h-5q-59 0 -71 43q16 18 80 37l96 43q-13 127 -13 222q0 33 2 63q6 112 22.5 214t39.5 170.5t73 134.5 q50 65 118 79q18 4 33 4q45 0 75 -28q40 -38 53 -88q4 -19 4 -51q0 -53 -12 -142q-20 -143 -58.5 -267.5t-58.5 -211.5l-8 -20l62 15q14 9 28 24q9 -1 16 -8q23 -4 28 -48l8 -16l-16 -27q-23 0 -52 4l-92 -24l-40 -178q-44 -187 -98 -382l-10 -81q5 -98 16 -154 q52 -229 86 -285t79 -56h1q45 0 83 41t46.5 86.5t31.5 131.5q34 6 57 11l12 -59q-44 -99 -61.5 -130t-53.5 -66t-100 -51q-20 -5 -41 -4q-44 0 -86 22q-62 33 -144 364l-22 -77q-41 -118 -96 -216t-88 -135q-32 -38 -70 -52q-19 -7 -36 -7t-32 7q-32 14 -42 76zM312 993 l121 36l12 18q48 194 64 251.5t38 201.5q15 101 15 158q0 25 -2 41q-10 55 -32 71q-16 12 -35 12q-9 0 -17 -2q-30 -6 -53.5 -49t-47.5 -129.5t-35.5 -184t-18 -220.5t-9.5 -204zM322 924l6 -114l21 -185l56 280l16 54z" />
<glyph unicode="u" horiz-adv-x="1119" d="M24 348q4 114 22 211.5t60 225t76 203.5t52.5 100.5t30 25.5t35 -13t3.5 -37.5t-47 -60.5t-59.5 -148t-48.5 -211q-7 -45 -7 -91q1 -57 11 -117q20 -110 43.5 -196.5t61 -148t91.5 -77.5q23 -7 47 -8q31 0 67 13q60 22 131 102t93 113t29 63q-35 111 -37 191q-1 22 0 45 q0 57 4 109q6 74 30.5 161t69.5 186.5t85.5 129t60.5 39.5q12 6 25 5q9 -1 19 -3q26 -6 34 -16q7 -8 21 -50q9 -26 9 -78q0 -30 -3 -68q-8 -104 -36 -203.5t-65 -194.5t-89 -185l-21 -51q8 -71 32 -158.5t58 -97.5q10 -3 18 -2q24 0 42 18q26 24 56.5 80t58.5 115 t39.5 102.5t11.5 71.5t11 57l22 13l12 -26l5 -19q-13 -122 -30.5 -180t-51 -136t-66 -113t-62.5 -42q-19 -4 -42 -4q-13 0 -27 1q-39 4 -56 13.5t-45 51t-44 77.5t-37 56q-39 -52 -108 -116t-137 -106t-156 -58q-33 -6 -61 -6q-49 0 -87 18q-60 28 -108 169q-46 132 -47 239 q1 9 1 16zM784 564q0 -6 1 -13q0 -69 14 -161l78 166q109 284 117 402q1 23 1 42q0 78 -25 90q-8 4 -15 4q-22 0 -42 -34q-26 -44 -52 -116.5t-50.5 -189.5t-26.5 -190z" />
<glyph unicode="v" horiz-adv-x="799" d="M-140 667q19 25 48 44q44 44 79 60.5t97 31.5q14 3 29 4q49 0 100 -39q67 -50 115.5 -157t63.5 -201.5t17.5 -217.5t14.5 -231q33 228 84.5 560.5t87 421t78.5 135.5q42 48 91 58q45 10 65 9h4q20 -1 43.5 -3t40 -2.5t51.5 -15.5q-2 -31 -24 -60q-15 -9 -32 10.5 t-65 25.5h-4q-48 0 -117 -144q-72 -148 -139 -409.5t-78.5 -421.5t-61.5 -247q-18 -25 -40 -48q-32 3 -56 28l8 36l-8 107q3 42 3 83q1 116 -23 220q-32 140 -83 229t-93 137q-40 48 -72 61q-16 6 -34 7q-20 0 -40 -7q-42 -13 -61 -32t-69 -92q-12 24 -20 60z" />
<glyph unicode="w" horiz-adv-x="1067" d="M-81 796q15 18 40 29l83 53q19 -13 76 -59q17 -17 72 -69l96 -112l140 -284q9 -19 25 -136q37 145 50.5 178t32.5 74t37 66l-24 195l12 186l32 112q15 15 72 64l88 -9l32 -39q13 -23 15 -107q0 -4 1 -8q-1 -82 -47 -190q-48 -114 -78 -157q57 -356 83.5 -436t72.5 -81 q45 0 64 114q19 115 21 209t26 377l-4 15q3 22 16 49q16 17 78 19q17 -2 32 -14l4 -49l-36 -201l-4 -64q-44 -249 -84.5 -366t-85.5 -133q-30 -10 -51 -10q-10 0 -17 2q-23 8 -44.5 21.5t-52 73.5t-61 156t-42.5 206q-59 -111 -82 -268q-28 -153 -32 -235l-16 -142l-20 -53 q-8 -22 -24 -45q-23 2 -44 10l-16 30l12 14l20 49l16 98l-12 98l-32 112q-4 30 -20 87.5t-48 133.5l-140 215q-16 16 -70 64t-74 59t-40 19l-44 25zM652 832q2 -70 3 -165q57 113 79 181q24 72 23 112q0 36 -21 60q-13 14 -24 15q-8 0 -16 -7q-18 -17 -32 -72 q-13 -50 -13 -112q1 -5 1 -12z" />
<glyph unicode="x" horiz-adv-x="756" d="M8 933q-1 7 -1 15q0 40 36 86q43 55 82 70q34 13 70 13h9q40 -2 82 -25.5t103 -178t76 -414.5l91 154q90 140 118 185t53.5 71.5t41 17.5t23 -14t17.5 -28t0 -41t-17 -28.5t-31 -38.5t-103 -151t-107.5 -164t-58.5 -101q33 -171 54 -238.5t72.5 -220t149.5 -200.5 q76 -37 127 -37q15 0 29 3q58 14 113 71t75.5 69.5t32.5 17t17 13.5t16 5q11 -6 18 -16q5 -7 5 -15q0 -3 -1 -7q-3 -12 -10 -25.5t-25 -29t-60 -61.5t-112 -62q-49 -11 -98 -10q-20 0 -40 2q-68 6 -145 45t-132 112.5t-100 190.5q-44 118 -56 212q-7 58 -26 58 q-11 0 -27 -24q-41 -60 -56.5 -75t-59 -76t-61.5 -74t-35.5 -10t-23 0t-13 4.5t-23.5 23t17 51.5t46 56.5t28.5 38t59 76.5t74.5 95l58 93q-12 62 -27.5 167t-50.5 249t-68 194q-29 44 -69 44q-6 0 -11 -1q-48 -6 -70 -74q-8 -23 -7 -41q0 -35 29 -53q44 -26 51 -35.5 t7 -21.5t-5 -23.5t-16.5 -18.5t-25.5 -10t-52.5 22.5t-43.5 48.5t-13 69z" />
<glyph unicode="y" horiz-adv-x="1132" d="M17 1253q0 72 46 127q47 56 137 64q12 1 24 1q71 0 100 -43q35 -51 48 -106.5t27 -133.5q4 -25 4 -57q0 -73 -21 -187q-32 -166 -38 -206t-14 -130q-6 -65 -6 -124q0 -21 1 -42q3 -76 34 -141.5t64 -73.5q5 -1 11 -1q31 0 82 37q61 44 184 220q15 110 20.5 235.5t48 292 t104.5 267t129 116.5q24 6 42 6q33 0 48 -20q9 -14 9 -47q0 -38 -13 -103q-26 -118 -88 -299.5t-190 -408.5q3 -36 21 -371q25 60 48.5 101.5t60 83.5t90.5 102q16 -4 32 -12l8 -28l-4 -12l-4 -44q-116 -27 -207 -293l20 -72q24 -204 30 -340t7 -216q1 -9 1 -18 q0 -77 -11 -195q-12 -133 -41 -218t-96 -146t-109 -73.5t-94 -22.5q-21 -5 -42 -5q-34 0 -70 11q-59 17 -88 68q-29 50 -29 140q0 2 1 4q0 92 63 266t139.5 367t217.5 463l-34 356q-71 -85 -84.5 -98.5t-37.5 -39.5t-61.5 -62.5t-93.5 -56.5q-31 -11 -61 -11q-25 0 -50 8 q-56 16 -87.5 75.5t-40.5 136.5q-4 42 -4 77q0 32 4 59q7 59 9.5 124.5t13.5 145.5t32.5 194.5t26.5 185.5q2 14 2 30q0 60 -18 135q-21 94 -54 101q-9 1 -17 1q-27 0 -57 -15q-39 -21 -50 -103q-2 -10 -2 -20q0 -70 71 -124q11 -18 16 -40q-6 -14 -20 -28q-29 11 -59 31.5 t-54 47.5q-27 30 -27 107zM436 -1068q-2 -23 -2 -43q0 -63 26 -101q22 -33 67 -33q26 0 61 11q92 31 133 117t62.5 181t23 193t2.5 175v17q0 70 -7 155q-8 96 -12 313q-52 -125 -92 -215t-86.5 -218.5t-105 -293.5t-70.5 -258zM803 589q110 211 156.5 349.5t72.5 268.5 q10 51 10 78q0 30 -13 30q-5 0 -11 -5q-41 -27 -59 -87t-26 -78t-83 -349z" />
<glyph unicode="z" horiz-adv-x="1015" d="M0 -319q8 25 24 47l28 38q19 11 36 28l52 28l31 43q34 95 90.5 219t138.5 282q80 158 130 266q25 54 25 78q0 20 -16 19q-4 -1 -8 -1q-49 -10 -101.5 -13t-102 -15.5t-60.5 -18.5t-29 -22.5t-48 -54.5t-78 -97q-19 12 -32 33l-8 38l8 9q52 80 68 96.5t26.5 21.5t46 18.5 t154.5 34.5t214 25q47 40 97 89t92 70q38 19 62 19q3 -1 6 -1q26 -2 64 -32q34 -27 34 -74v-11q-4 -55 -40 -89q-34 -34 -74 -34h-2q-40 1 -147 6q-130 -304 -183 -421t-245 -456q107 48 223 92.5t244 46.5h33q106 0 173 -9q78 -10 149 -32q58 -18 73 -18q3 0 4 1q6 5 20 -2 q9 -5 9 -27q0 -11 -2 -27q-7 -47 -13 -54t-18 -12t-26 -7.5t-23 -1.5t-66.5 29t-132.5 66t-153 39h-4q-78 0 -231 -37q-157 -38 -202.5 -68t-121.5 -81l-32 -33l-40 -28q-17 -13 -40 -24q-19 -5 -40 -14q-18 13 -36 33zM723 837q-14 -14 -14 -24q0 -19 48 -27q19 -3 35 -4 q50 0 78 29q23 23 23 42q1 11 -9 21q-17 17 -45 18q-13 0 -28 -4q-47 -12 -88 -51z" />
<glyph unicode="{" horiz-adv-x="1328" d="M0 328l12 76l24 68q9 34 36 60l44 48q24 19 48 48l60 36q33 11 48 44q7 370 31.5 600.5t74 356.5t93.5 188t79.5 99.5t86 58t127 13t106.5 -27t54.5 -40.5t95.5 -96l12 -48l-4 -32l-16 -24q-58 38 -113 99t-126 99t-136 -23.5t-83.5 -90.5t-34 -60.5t-29 -63.5 t-41.5 -103t-65 -360.5t0 -568.5l72 -112q18 -23 35 -55.5t54 -190.5t47 -493.5t27 -411t29 -109.5t26.5 -67.5t33 -63t39.5 -56.5t47.5 -49t60 -33.5t113 -5.5t106 27.5t52 44t51.5 44.5t43 56l52 24l12 -8l8 -12l-12 -60l-88 -100q-81 -55 -104 -80t-54 -43t-78 -34.5 t-121 -7.5t-121.5 42t-69.5 60.5t-51 93.5t-35 85.5t-22 127.5t-22 306t-6.5 381t-39 340t-60.5 188l-28 24q-14 -5 -24 -16q-6 -35 -20 -76l-56 -132l-48 -44q-18 -22 -48 -48q-27 -14 -60 -36l-16 -4l-40 4l-8 4l-8 12q-20 20 -40 52l-8 12zM68 364q4 -23 12 -48 q12 -16 32 -28q22 5 44 16l40 24l28 32l20 40l24 88l8 52q-12 14 -32 20l-48 -16l-40 -24l-60 -60z" />
<glyph unicode="}" horiz-adv-x="1354" d="M0 1698l12 60l88 100q82 54 105 79t54 43.5t78 35t120.5 7.5t121.5 -42.5t70 -60.5t50.5 -93t34.5 -85.5t22 -127.5t22 -306.5t7 -382t39 -340t60 -187.5l28 -24q14 5 24 16q7 35 20 76l56 132l48 44q19 22 48 48q28 14 60 36l16 4l40 -4l8 -4l8 -12q21 -20 40 -52l8 -12 l4 -64l-12 -76l-24 -68q-8 -34 -36 -60l-44 -48q-23 -20 -48 -48l-60 -36q-32 -11 -48 -44q-6 -370 -30.5 -600t-74.5 -356.5t-93.5 -188t-79.5 -99.5t-86 -58.5t-126.5 -13t-106.5 27t-54.5 41t-96.5 95.5l-12 48l4 32l16 24q59 -37 114 -98.5t126 -99t135.5 23.5t83 90.5 t34.5 60.5t29.5 63t41 103.5t64.5 360.5t0 568l-72 112q-17 23 -34 55.5t-54 190.5t-47 493.5t-27 411t-29 109.5t-26.5 67.5t-33 63t-40 56.5t-47.5 49t-59.5 33.5t-113 5.5t-106 -27.5t-52 -43.5t-52 -44.5t-43.5 -55.5l-52 -24l-12 8zM1016 370q13 -14 32 -20l48 16 l40 24l60 60l28 96q-3 23 -12 48q-11 16 -32 28q-21 -5 -44 -16l-40 -24l-28 -32l-20 -40l-24 -88z" />
<glyph unicode="~" horiz-adv-x="1024" d="M119 536.5q8 48.5 28.5 66.5t54.5 30.5t66 16t38 1.5t13 -11t10 -22t-9 -31t-21 -25t-22 -10t-28.5 6t-40 6.5t-46.5 -32t-0.5 -60t79 -20.5t80.5 18t50.5 22t72 55t86.5 83.5t77.5 72t78 42t64.5 16.5t52 2t54 -10t52 -42t24 -100t-34 -98t-40.5 -37t-30 -12t-55.5 9 t-43 22t-12 16t-7 28t2 24t12 12t20 -2t33 -34t53 -5.5t37 50t-4.5 50.5t-35 30.5t-62 9.5t-83 -10.5t-73.5 -28.5t-54 -40t-43 -36t-36.5 -33.5t-66 -71.5t-97.5 -70.5t-113 -2t-74.5 61.5t-5.5 93.5z" />
<glyph unicode="&#xa2;" horiz-adv-x="697" d="M70.5 908q4.5 88 61.5 206.5t169 183.5t184.5 18t77.5 -63.5t-14.5 -9.5t-48.5 17.5t-86 5.5t-84.5 -33t-75 -113.5t-62 -186.5t-1.5 -147.5t42.5 -78t83 -37t104.5 9.5t78.5 43t45 57.5t31 54.5t26.5 25q-3 -38 -22.5 -71t-34 -55.5t-29 -40.5t-41 -36t-75 -29.5 t-102 -13.5t-88.5 10.5t-68 40.5t-54.5 91.5t-17 151.5zM301 308q-14 20 9 459t36.5 683t61.5 189q48 -54 11.5 -531.5t-70.5 -648.5t-48 -151z" />
<glyph unicode="&#xad;" d="M19 854q4 22 12 44l8 20l44 4l12 -4q35 3 76 12l160 20q31 7 72 8q33 5 64 24q36 -4 36 -40q-5 -32 -32 -60l-16 -16l-36 12q-34 -2 -76 -12l-44 4l-28 -8l-64 -8l-68 -20q-28 -2 -64 -16l-32 -16l-16 28z" />
<glyph unicode="&#x2000;" horiz-adv-x="1028" />
<glyph unicode="&#x2001;" horiz-adv-x="2056" />
<glyph unicode="&#x2002;" horiz-adv-x="1028" />
<glyph unicode="&#x2003;" horiz-adv-x="2056" />
<glyph unicode="&#x2004;" horiz-adv-x="685" />
<glyph unicode="&#x2005;" horiz-adv-x="514" />
<glyph unicode="&#x2006;" horiz-adv-x="342" />
<glyph unicode="&#x2007;" horiz-adv-x="342" />
<glyph unicode="&#x2008;" horiz-adv-x="257" />
<glyph unicode="&#x2009;" horiz-adv-x="411" />
<glyph unicode="&#x200a;" horiz-adv-x="114" />
<glyph unicode="&#x2010;" d="M19 854q4 22 12 44l8 20l44 4l12 -4q35 3 76 12l160 20q31 7 72 8q33 5 64 24q36 -4 36 -40q-5 -32 -32 -60l-16 -16l-36 12q-34 -2 -76 -12l-44 4l-28 -8l-64 -8l-68 -20q-28 -2 -64 -16l-32 -16l-16 28z" />
<glyph unicode="&#x2011;" d="M19 854q4 22 12 44l8 20l44 4l12 -4q35 3 76 12l160 20q31 7 72 8q33 5 64 24q36 -4 36 -40q-5 -32 -32 -60l-16 -16l-36 12q-34 -2 -76 -12l-44 4l-28 -8l-64 -8l-68 -20q-28 -2 -64 -16l-32 -16l-16 28z" />
<glyph unicode="&#x2012;" d="M19 854q4 22 12 44l8 20l44 4l12 -4q35 3 76 12l160 20q31 7 72 8q33 5 64 24q36 -4 36 -40q-5 -32 -32 -60l-16 -16l-36 12q-34 -2 -76 -12l-44 4l-28 -8l-64 -8l-68 -20q-28 -2 -64 -16l-32 -16l-16 28z" />
<glyph unicode="&#x2013;" horiz-adv-x="1102" d="M19 854q8 22 25 44l17 20l93 4l26 -4q74 3 161 12l338 20q66 7 152 8q70 5 136 24q76 -4 76 -40q-11 -32 -68 -60l-34 -16l-76 12q-72 -2 -161 -12l-93 4l-59 -8l-135 -8l-144 -20q-59 -2 -136 -16l-67 -16l-34 28z" />
<glyph unicode="&#x2014;" horiz-adv-x="2126" d="M19 854q17 22 51 44l34 20l186 4l51 -4q148 3 321 12l677 20q131 7 305 8q139 5 271 24q152 -4 152 -40q-21 -32 -135 -60l-68 -16l-152 12q-144 -2 -322 -12l-186 4l-119 -8l-270 -8l-288 -20q-119 -2 -271 -16l-135 -16l-68 28z" />
<glyph unicode="&#x2018;" horiz-adv-x="494" d="M215.5 1642.5q-5.5 32.5 14 79t42 89t59.5 72t50 25.5t17.5 -19t-16 -18t-44.5 -24.5t-34 -49t-15 -70.5l20 -3q66 -12 80 -40t7 -55.5t-17.5 -37.5t-23 -19t-55 -9.5t-61 23.5t-24 56.5z" />
<glyph unicode="&#x2019;" horiz-adv-x="499" d="M215 1582q-5 15 15.5 18t44.5 24.5t34.5 49t15.5 70.5l-20 2q-67 13 -80.5 41t-7 55.5t17 37t23.5 18.5t55 10t61 -23t24.5 -56.5t-14.5 -79t-42 -89t-59 -72t-50 -25.5t-18 19z" />
<glyph unicode="&#x201c;" horiz-adv-x="698" d="M199 2015q19 19 46 33q26 -12 63 -27l-6 -73v-183q1 -61 -8 -62.5t-37 14.5q-7 22 -8 49q-4 21 -2 49l-35 148zM387 2014q11 18 40 33q48 -7 67 -24l-13 -60l-12 -122l-31 -144q-29 29 -37 54z" />
<glyph unicode="&#x201d;" horiz-adv-x="699" d="M197 2015q19 19 46 33q26 -12 63 -27l-6 -73v-183q1 -61 -8 -62.5t-37 14.5q-7 22 -8 49q-4 21 -2 49l-35 148zM385 2014q11 18 40 33q48 -7 67 -24l-13 -60l-12 -122l-31 -144q-29 29 -37 54z" />
<glyph unicode="&#x202f;" horiz-adv-x="411" />
<glyph unicode="&#x205f;" horiz-adv-x="514" />
<glyph unicode="&#xe000;" horiz-adv-x="1115" d="M0 0v1115h1115v-1115h-1115z" />
</font>
</defs>
</svg>
